<?xml version="1.0" encoding="utf-8"?>
<!-- Generator: Adobe Illustrator 24.0.1, SVG Export Plug-In . SVG Version: 6.00 Build 0)  -->
<svg version="1.1" id="Layer_1" xmlns="http://www.w3.org/2000/svg" xmlns:xlink="http://www.w3.org/1999/xlink" x="0px" y="0px"
	 viewBox="0 0 496.2 496.2" style="enable-background:new 0 0 496.2 496.2;" xml:space="preserve">
<style type="text/css">
	.st0{fill:#1CABE2;}
	.st1{fill:#3FBBD8;}
	.st2{fill:#E9F2F4;}
	.st3{fill:#78DDF4;}
	.st4{fill:#E2A379;}
	.st5{fill:#F4B382;}
	.st6{fill:#191919;}
	.st7{fill:#E5A173;}
	.st8{fill:#D89364;}
	.st9{fill:#E6E7E8;}
	.st10{fill:#3F3F3F;}
	.st11{fill:#FFFFFF;}
	.st12{fill:#4ECFF2;}
	.st13{fill:#C9DEE2;}
	.st14{fill:#5E5E5E;}
	.st15{fill:#828282;}
	.st16{fill:#69696B;}
	.st17{fill:#8D8D8E;}
	.st18{opacity:0.45;fill:#78DDF4;}
</style>
<path class="st0" d="M495.9,248.1C495.9,111.1,384.8,0,247.8,0S-0.3,111.1-0.3,248.1s111.1,248.1,248.1,248.1
	S495.9,385.1,495.9,248.1z"/>
<polygon class="st1" points="306.4,352.4 189.6,352.4 208.3,320.3 248.1,315.1 287.9,320.3 "/>
<path class="st2" d="M248.1,496.2c70.2,0,133.6-29.2,178.7-76c-2.8-15.1-5.6-28.9-8.3-37.4c-8.5-27.3-81.2-49.3-170.8-49.3
	s-161.5,22-170,49.3c-2.6,8.5-5.5,22.2-8.3,37.4C114.5,467,177.9,496.2,248.1,496.2z"/>
<path class="st3" d="M247.7,333.4c-1.4,0-2.9,0-4.3,0c-0.4,0-0.8,0-1.1,0c-1.1,0-2.1,0-3.2,0c-0.2,0-0.5,0-0.7,0
	c-19.7,0.3-37.9,1.8-52.9,4.1c0,0,4,37.9,4,58.6l58.5,69l58.3-68.9c0-42.6-0.1-58.9-0.1-58.9C289.5,334.8,270.3,333.4,247.7,333.4z"
	/>
<path class="st4" d="M287,282.1h-77.8c12.1,36.6,1,53.3,1,53.3l26.9,6.1h22l26.9-6.1C286,335.4,274.9,318.7,287,282.1z"/>
<path class="st5" d="M336.4,175.2c0-92.4-39.5-113.6-88.3-113.6c-48.7,0-88.3,21.2-88.3,113.6c0,31.3,6.2,55.8,15.5,74.7
	c20.4,41.6,55.7,56.1,72.8,56.1s52.4-14.5,72.8-56.1C330.2,231,336.4,206.5,336.4,175.2z"/>
<g>
	<path class="st6" d="M247.6,292.9h0.5C247.9,292.9,247.8,292.9,247.6,292.9L247.6,292.9z"/>
	<path class="st6" d="M248.6,292.9L248.6,292.9c-0.2,0-0.3,0-0.5,0H248.6z"/>
</g>
<g>
	<path class="st5" d="M170.4,238.7c-8.4,1.4-14.4,0.1-19.1-27.7s1.7-31.5,10.1-32.9L170.4,238.7z"/>
	<path class="st5" d="M325.9,238.7c8.4,1.4,14.3,0.1,19.1-27.7c4.8-27.8-1.7-31.5-10.1-32.9L325.9,238.7z"/>
</g>
<path class="st7" d="M274.8,257c0,2.6-11.9,9.5-26.7,9.5s-26.7-7-26.7-9.5c0-1.6,8.5-6.1,14.1-6.9c3.6-0.5,12.5,2.9,12.5,2.9
	s8.8-3.4,12.4-2.9C266.2,250.9,274.8,257,274.8,257z"/>
<path class="st8" d="M274.8,257c0,2.6-11.9,12.4-26.7,12.4s-26.7-9.9-26.7-12.4c0,0,10.9,1.3,26.7,1.3S274.8,257,274.8,257z"/>
<g>
	<path class="st9" d="M336.4,175.2c0-92.4-30.3-116.1-88.3-116.1s-88.3,23.7-88.3,116.1l39.8-33.1c0,0,26.5,0,48.5,0
		s46.2-35.3,46.2-35.3L336.4,175.2z"/>
	<path class="st9" d="M165.5,140.8c-4.2,10.9-5.6,24.4-5.6,37.5c0,0,8.8-1.9,8.8,2.6l2.8,27.6l3.9-1.9c-0.2-23,4.9-68,4.9-68
		L165.5,140.8z"/>
	<path class="st9" d="M330.8,140.8c4.2,10.9,5.6,24.4,5.6,37.5c0,0-8.8-1.9-8.8,2.6l-2.8,27.6l-3.9-1.9c0.2-23-4.9-66.2-4.9-66.2
		L330.8,140.8z"/>
</g>
<g>
	<path class="st10" d="M260.3,200.6h-21.7c-0.2,0-4-11.9-3.7-11.9h25.7C260.9,188.7,260.5,200.6,260.3,200.6z"/>
	<path class="st10" d="M258.4,200.7c-3-2.1-6.6-4.2-10.5-4.2c-2.9,0-5.8,1.6-8.2,2.8c-3.9,2-3.9,12.7-3.9,12.7
		c2.2-4.7,7-7.7,12.2-7.7c5.1,0,9.9,3,12.2,7.7C260.1,212.1,261.3,202.7,258.4,200.7z"/>
</g>
<g>
	<path class="st11" d="M311.5,337.4L311.5,337.4L311.5,337.4L311.5,337.4z"/>
	<path class="st11" d="M298.5,335.9L298.5,335.9L298.5,335.9z"/>
</g>
<path class="st12" d="M306.5,336.6l-18.6-16.2l-39.8,19.8c0,0,58.1,32.8,58.4,32.6V336.6z"/>
<polygon class="st13" points="358,345.9 293.3,324.9 248.1,469.1 330,373.1 319,362.1 335.5,362.1 "/>
<path class="st12" d="M189.7,336.6l18.6-16.2l39.8,19.9c0,0-58.1,32.8-58.3,32.6v-36.3H189.7z"/>
<polygon class="st13" points="138.1,345.9 203.1,324.9 248.1,469.1 166.1,373.1 177.1,362.1 160.6,362.1 "/>
<g>
	<path class="st10" d="M214.8,312c-34.9,8.6-59.8,30.2-59.8,55.4v85.3h5v-85.3c0-22.7,22.7-42.2,54.7-50.3
		C214.9,315.5,214.9,313.8,214.8,312z"/>
	<path class="st10" d="M281.4,312c0,1.8,0,3.5,0.1,5.1c32.1,8.1,54.7,27.6,54.7,50.3v15.7h5v-15.6
		C341.2,342.2,316.3,320.6,281.4,312z"/>
</g>
<circle class="st14" cx="157.6" cy="444" r="16.7"/>
<circle class="st15" cx="157.6" cy="444" r="14.6"/>
<circle class="st14" cx="157.6" cy="444" r="10.3"/>
<circle class="st15" cx="157.6" cy="444" r="7.4"/>
<g>
	<path class="st16" d="M349.4,459.3c-5.8,0-13.5-0.1-20.1-3.6c-8.3-4.4-12.6-13.1-12.6-25.7v-21.6h4V430c0,11.2,3.4,18.5,10.4,22.2
		c6,3.2,13.4,3.2,18.9,3.2h0.6v4H350C349.8,459.3,349.6,459.3,349.4,459.3z"/>
	<path class="st16" d="M354.9,457.3c0,2.3-1.9,4.2-4.2,4.2l0,0c-2.3,0-4.2-1.9-4.2-4.2l0,0c0-2.3,1.9-4.2,4.2-4.2l0,0
		C352.9,453,354.9,454.9,354.9,457.3L354.9,457.3z"/>
</g>
<g>
	<path class="st17" d="M327.8,459.2c-0.2,0-0.4,0-0.6,0h-0.6v-4h0.6c5.4,0,12.9,0,18.9-3.2c7-3.7,10.4-11,10.4-22.2v-21.6h4v21.6
		c0,12.7-4.2,21.3-12.6,25.7C341.3,459.1,333.6,459.2,327.8,459.2z"/>
	<path class="st17" d="M322.4,457.2c0,2.3,1.9,4.2,4.2,4.2l0,0c2.3,0,4.2-1.9,4.2-4.2l0,0c0-2.3-1.9-4.2-4.2-4.2l0,0
		C324.3,452.9,322.4,454.8,322.4,457.2L322.4,457.2z"/>
</g>
<path class="st10" d="M358.5,410.8c-1.4,0-2.5-1.1-2.5-2.5v-6.6c0-9.6-7.8-17.4-17.4-17.4s-17.4,7.8-17.4,17.4v6.6
	c0,1.4-1.1,2.5-2.5,2.5s-2.5-1.1-2.5-2.5v-6.6c0-12.3,10-22.4,22.4-22.4s22.4,10,22.4,22.4v6.6C361,409.6,359.9,410.8,358.5,410.8z"
	/>
<path class="st10" d="M179.4,191.7c-0.9,0-1.8-0.4-2.5-1.1l-17.3-18.5c-1.3-1.4-1.2-3.6,0.2-4.8c1.4-1.3,3.6-1.2,4.8,0.2l17.3,18.5
	c1.3,1.4,1.2,3.6-0.2,4.8C181.1,191.4,180.3,191.7,179.4,191.7z"/>
<path class="st10" d="M317.4,191.7c0.9,0,1.8-0.4,2.5-1.1l17.3-18.5c1.3-1.4,1.2-3.6-0.2-4.8c-1.4-1.3-3.6-1.2-4.8,0.2L314.9,186
	c-1.3,1.4-1.2,3.6,0.2,4.8C315.8,191.4,316.6,191.7,317.4,191.7z"/>
<g>
	<rect x="180.6" y="179.3" class="st18" width="55.4" height="34.7"/>
	<polygon class="st18" points="181.7,213 180.7,179.1 236.1,179.1 	"/>
	<path class="st15" d="M231.4,176.5h-45.6c-4,0-7.2,2.6-7.2,5.9v28.2c0,3.3,3.2,5.9,7.2,5.9h45.6c4,0,7.2-2.6,7.2-5.9v-28.2
		C238.6,179.1,235.4,176.5,231.4,176.5z M234.3,207.2c0,3.3-3.2,5.9-7.2,5.9h-36.9c-4,0-7.2-2.6-7.2-5.9v-21.4
		c0-3.3,3.2-5.9,7.2-5.9h36.9c4,0,7.2,2.6,7.2,5.9V207.2z"/>
</g>
<g>
	<rect x="259.9" y="179.3" class="st18" width="55.4" height="34.7"/>
	<polygon class="st18" points="261,213.8 261,179.1 316.4,179.1 	"/>
	<path class="st15" d="M310.4,176.5h-45.6c-4,0-7.2,2.6-7.2,5.9v28.2c0,3.3,3.2,5.9,7.2,5.9h45.6c4,0,7.2-2.6,7.2-5.9v-28.2
		C317.6,179.1,314.4,176.5,310.4,176.5z M313.3,207.2c0,3.3-3.2,5.9-7.2,5.9h-36.9c-4,0-7.2-2.6-7.2-5.9v-21.4
		c0-3.3,3.2-5.9,7.2-5.9h36.9c4,0,7.2,2.6,7.2,5.9V207.2z"/>
</g>
</svg>
