<svg xmlns="http://www.w3.org/2000/svg" viewBox="0 0 17.03 14.41"><defs><style>.cls-1{fill:#fff;}.cls-2{fill:#1cabe2;}</style></defs><title>Ativo 2</title><g id="Camada_2" data-name="Camada 2"><g id="Capa_1" data-name="Capa 1"><path class="cls-1" d="M16,7.2a5.66,5.66,0,0,0-2.14-4.32,7.69,7.69,0,0,0-2.4-1.37,8.93,8.93,0,0,0-5.95,0,7.58,7.58,0,0,0-2.4,1.37A5.66,5.66,0,0,0,1,7.2a5.66,5.66,0,0,0,2.14,4.33,7.58,7.58,0,0,0,2.4,1.37,8.71,8.71,0,0,0,3,.51h7l-1-1a1,1,0,0,1,0-1.39A5.49,5.49,0,0,0,16,7.2Zm-6.21,3H4.58a.66.66,0,0,1-.65-.66.65.65,0,0,1,.65-.65H9.82a.66.66,0,0,1,.66.65A.67.67,0,0,1,9.82,10.2Zm2.62-2.34H4.58a.66.66,0,0,1-.65-.66.65.65,0,0,1,.65-.65h7.86a.66.66,0,0,1,.66.65A.67.67,0,0,1,12.44,7.86Zm0-2.38H4.58a.65.65,0,0,1-.65-.65.66.66,0,0,1,.65-.66h7.86a.67.67,0,0,1,.66.66A.66.66,0,0,1,12.44,5.48Z"/><path class="cls-2" d="M8.51,0C3.82,0,0,3.23,0,7.2s3.82,7.21,8.51,7.21h7.86a.66.66,0,0,0,.47-1.12l-1.63-1.63A6.52,6.52,0,0,0,17,7.2C17,3.23,13.21,0,8.51,0Zm6,12.37,1,1h-7a8.71,8.71,0,0,1-3-.51,7.58,7.58,0,0,1-2.4-1.37A5.66,5.66,0,0,1,1,7.2,5.66,5.66,0,0,1,3.14,2.88a7.58,7.58,0,0,1,2.4-1.37,8.93,8.93,0,0,1,6,0,7.69,7.69,0,0,1,2.4,1.37A5.66,5.66,0,0,1,16,7.2,5.49,5.49,0,0,1,14.47,11,1,1,0,0,0,14.5,12.37Z"/><path class="cls-2" d="M12.44,6.55H4.58a.65.65,0,0,0-.65.65.66.66,0,0,0,.65.66h7.86a.67.67,0,0,0,.66-.66A.66.66,0,0,0,12.44,6.55Z"/><path class="cls-2" d="M12.44,4.17H4.58a.66.66,0,0,0-.65.66.65.65,0,0,0,.65.65h7.86a.66.66,0,0,0,.66-.65A.67.67,0,0,0,12.44,4.17Z"/><path class="cls-2" d="M9.82,8.89H4.58a.65.65,0,0,0-.65.65.66.66,0,0,0,.65.66H9.82a.67.67,0,0,0,.66-.66A.66.66,0,0,0,9.82,8.89Z"/></g></g></svg>