<svg width="225" height="169" viewBox="0 0 225 169" fill="none" xmlns="http://www.w3.org/2000/svg">
<mask id="path-1-inside-1" fill="white">
<path d="M112.523 165.271C157.635 165.271 194.341 125.22 194.341 75.9946V24.9792C194.341 24.0428 193.969 23.1327 193.282 22.3901C192.596 21.6475 191.635 21.114 190.546 20.8724L113.843 3.86732C112.978 3.67541 112.068 3.67541 111.204 3.86732L34.5003 20.8724C33.4122 21.114 32.4504 21.6475 31.7643 22.3901C31.0782 23.1327 30.7062 24.0428 30.7061 24.9792V75.9946C30.7061 125.22 67.4114 165.271 112.523 165.271ZM40.9332 28.2484L112.523 12.3741L184.114 28.2484V75.9946C184.114 120.535 152 156.769 112.523 156.769C73.0465 156.769 40.9332 120.535 40.9332 75.9946V28.2484Z"/>
</mask>
<path d="M194.341 24.9792L195.571 24.9792L195.571 24.979L194.341 24.9792ZM190.546 20.8724L190.813 19.6717L190.813 19.6716L190.546 20.8724ZM113.843 3.86732L113.576 5.06808L113.576 5.06816L113.843 3.86732ZM111.204 3.86732L111.47 5.06816L111.471 5.06808L111.204 3.86732ZM34.5003 20.8724L34.2341 19.6716L34.2338 19.6717L34.5003 20.8724ZM30.7061 24.9792L29.4761 24.979V24.9792H30.7061ZM40.9332 28.2484L40.667 27.0476L39.7032 28.2484H40.9332ZM112.523 12.3741L112.79 11.1733L112.257 11.1733L112.523 12.3741ZM184.114 28.2484H185.344L184.38 27.0476L184.114 28.2484ZM112.523 166.501C158.414 166.501 195.571 125.796 195.571 75.9946H193.111C193.111 124.644 156.857 164.041 112.523 164.041V166.501ZM195.571 75.9946V24.9792H193.111V75.9946H195.571ZM195.571 24.979C195.57 23.7074 195.064 22.5054 194.186 21.5554L192.379 23.2248C192.873 23.7599 193.111 24.3782 193.111 24.9794L195.571 24.979ZM194.186 21.5554C193.312 20.61 192.12 19.9617 190.813 19.6717L190.28 22.0732C191.15 22.2663 191.88 22.685 192.379 23.2248L194.186 21.5554ZM190.813 19.6716L114.109 2.66647L113.576 5.06816L190.28 22.0733L190.813 19.6716ZM114.109 2.66655C113.069 2.43567 111.977 2.43567 110.938 2.66655L111.471 5.06808C112.159 4.91516 112.887 4.91516 113.576 5.06808L114.109 2.66655ZM110.938 2.66647L34.2341 19.6716L34.7666 22.0733L111.47 5.06816L110.938 2.66647ZM34.2338 19.6717C32.9272 19.9617 31.7344 20.61 30.8609 21.5554L32.6677 23.2248C33.1664 22.685 33.8972 22.2663 34.7669 22.0732L34.2338 19.6717ZM30.8609 21.5554C29.9831 22.5054 29.4763 23.7074 29.4761 24.979L31.9361 24.9794C31.9362 24.3783 32.1733 23.7599 32.6677 23.2248L30.8609 21.5554ZM29.4761 24.9792V75.9946H31.9361V24.9792H29.4761ZM29.4761 75.9946C29.4761 125.796 66.6332 166.501 112.523 166.501V164.041C68.1895 164.041 31.9361 124.644 31.9361 75.9946H29.4761ZM41.1995 29.4492L112.79 13.575L112.257 11.1733L40.667 27.0476L41.1995 29.4492ZM112.257 13.575L183.847 29.4492L184.38 27.0476L112.79 11.1733L112.257 13.575ZM182.884 28.2484V75.9946H185.344V28.2484H182.884ZM182.884 75.9946C182.884 120 151.186 155.539 112.523 155.539V157.999C152.815 157.999 185.344 121.071 185.344 75.9946H182.884ZM112.523 155.539C73.8612 155.539 42.1632 120 42.1632 75.9946H39.7032C39.7032 121.071 72.2319 157.999 112.523 157.999V155.539ZM42.1632 75.9946V28.2484H39.7032V75.9946H42.1632Z" fill="#00A9EB" mask="url(#path-1-inside-1)"/>
<path d="M100.582 65.528C101.556 66.0688 102.643 66.4524 103.788 66.6588C102.136 66.2549 101.165 66.0126 100.582 65.528Z" fill="#007BFF"/>
<path d="M151.009 123.203C151.883 120.214 150.231 118.033 145.665 115.529C146.151 115.044 146.636 114.56 147.122 113.994C148.307 112.865 149.41 111.678 150.426 110.44C153.535 106.643 155.575 102.12 157.033 96.1424C158.278 91.1904 158.311 86.0806 157.13 81.1178C156.061 76.9174 154.021 73.7671 150.814 71.4246C147.414 68.9205 143.236 67.7088 138.863 66.4971L138.572 66.4164L138.669 66.6587C138.834 66.9861 139.101 67.271 139.443 67.484C139.784 67.697 140.188 67.8304 140.612 67.8704C140.807 67.8704 141.001 67.9511 141.195 67.9511C145.568 69.1628 150.912 71.1014 153.826 75.7057C155.478 78.2906 156.644 80.5524 155.575 83.3796C151.786 92.9921 147.9 100.424 143.236 106.805C139.252 112.298 134.977 116.094 129.827 118.518C121.763 122.395 113.504 123.203 105.246 121.022C101.265 119.993 97.7679 117.96 95.238 115.206C92.6889 112.311 90.7202 109.092 89.4083 105.674C88.829 104.477 88.1471 103.316 87.3679 102.201C86.9505 101.767 86.7426 101.22 86.785 100.666C86.8821 100.262 87.2708 99.9389 88.0481 99.6158L90.8657 101.231L90.4771 100.747C90.1856 100.262 89.797 99.8581 89.5055 99.4542C89.1914 99.1176 88.8995 98.767 88.631 98.4041C88.4367 98.081 88.4367 97.2732 88.631 97.1925C89.1805 96.9817 89.8058 96.9528 90.3799 97.1117C90.7358 97.2581 91.0378 97.4812 91.2544 97.7579C91.5459 98.0002 91.7402 98.3233 92.0317 98.5657L92.9061 99.535C93.2701 99.8528 93.6597 100.15 94.0721 100.424C94.2664 100.585 94.4607 100.666 94.5579 100.827L94.655 100.908L95.1408 100.424L94.9465 100.181C94.8494 100.1 94.7522 99.9389 94.655 99.8581C94.3635 99.535 94.0721 99.1311 93.7806 98.808C93.0033 97.8387 92.1288 96.7886 91.3515 95.7385C91.2772 95.5233 91.256 95.2979 91.2894 95.0757C91.3228 94.8536 91.4101 94.6394 91.5459 94.446C91.8324 94.3267 92.1484 94.2645 92.4689 94.2645C92.7894 94.2645 93.1054 94.3267 93.3919 94.446C94.1086 94.8149 94.6821 95.3478 95.0437 95.9808C95.6123 96.9477 96.0993 97.9464 96.5011 98.9696C96.5983 99.2927 96.7926 99.6158 96.8897 99.8581C97.3604 100.973 98.2029 101.954 99.3188 102.685L99.7074 102.928L99.6103 102.524L98.7358 100.343C98.5415 99.7773 98.25 99.2119 98.0557 98.6465C97.9636 98.3707 97.9508 98.0808 98.0183 97.8002C98.0858 97.5195 98.2318 97.256 98.4443 97.0309C98.4953 96.937 98.577 96.857 98.6801 96.7998C98.7831 96.7427 98.9035 96.7108 99.0273 96.7078C99.4099 96.7279 99.7825 96.8179 100.118 96.9715C100.454 97.1251 100.745 97.3385 100.971 97.5964C101.697 99.0153 102.187 100.51 102.428 102.039V102.039C102.719 105.189 103.011 108.178 105.343 110.844C106.468 112.265 108.074 113.377 109.96 114.038C111.845 114.7 113.924 114.881 115.933 114.56C119.528 113.913 122.152 111.894 123.803 108.501C124.97 106.136 125.817 103.671 126.33 101.151C126.907 98.0773 127.199 94.9717 127.204 91.8612V89.6802C126.946 86.9477 127.175 84.1985 127.884 81.5217C128.953 78.2098 130.896 76.0289 133.811 74.8172C136.838 73.6758 140.108 73.0444 143.43 72.9593C144.402 72.8785 145.373 72.8785 146.248 72.8785C146.671 72.8919 147.095 72.8648 147.511 72.7978H147.705V72.1515H147.511C147.374 72.1636 147.236 72.135 147.122 72.0708C146.831 72.0708 146.539 71.99 146.248 71.99C145.276 72.0708 144.305 72.1515 143.333 72.3131C140.882 72.5115 138.449 72.8352 136.046 73.2824C134.196 73.6041 132.472 74.3044 131.03 75.32C129.587 76.3356 128.473 77.6343 127.787 79.0984C125.941 82.6526 125.844 86.3683 126.038 89.761C126.135 91.2957 126.135 92.9113 126.233 94.6076C126.233 95.3346 126.33 96.0616 126.33 96.7886C125.351 96.433 124.261 96.3481 123.221 96.5462C122.152 96.627 121.18 96.7078 120.403 96.1424L121.141 91.4492C121.453 91.6389 121.824 91.751 122.21 91.7723C122.599 91.7723 122.89 91.53 123.182 91.2069C123.338 91.0705 123.46 90.9093 123.54 90.7329C123.621 90.5565 123.657 90.3685 123.648 90.18C123.639 89.9916 123.585 89.8066 123.488 89.6361C123.391 89.4656 123.254 89.313 123.084 89.1875C122.814 88.9908 122.472 88.8768 122.113 88.8643C121.724 88.9451 121.53 89.2682 121.336 89.5913C121.238 89.7529 121.141 89.9952 120.947 89.9952L118.032 83.6138L123.765 79.7365L122.987 79.8981C120.786 80.4767 118.852 81.6049 117.449 83.1292C117.352 82.9676 117.255 82.8868 117.158 82.7253C116.857 82.3349 116.533 81.9575 116.186 81.5944C115.618 81.0864 114.964 80.6509 114.243 80.302C113.547 79.9308 112.737 79.7345 111.911 79.7365C111.157 79.9223 110.438 80.1941 109.773 80.5443C109.482 80.7058 109.288 80.7866 108.996 80.9482C108.907 80.986 108.832 81.044 108.781 81.1154C108.729 81.1868 108.703 81.2688 108.705 81.3521C108.705 81.8367 108.413 81.8367 107.83 81.9983H107.636C107.291 82.0815 106.986 82.2507 106.761 82.4829H106.567L106.664 82.5637L106.47 82.7253L106.276 82.8061L106.47 82.8868C106.567 82.9676 106.664 83.0484 106.761 83.0484C106.967 83.2295 107.195 83.392 107.441 83.533L108.024 83.7754H108.122C108.015 84.1028 107.994 84.4454 108.061 84.78C108.129 85.1145 108.282 85.4331 108.51 85.714C108.766 86.0288 109.115 86.2835 109.523 86.4533C109.932 86.6231 110.386 86.7024 110.842 86.6834C111.134 86.6834 111.425 86.6834 111.522 86.8449C111.619 87.0065 111.522 87.0872 111.328 87.4104C110.975 87.9537 110.871 88.5853 111.036 89.1875C111.328 90.076 111.814 90.8838 112.202 91.7723C112.405 92.0802 112.568 92.4051 112.688 92.7416L112.3 93.0648C112.078 93.2557 111.799 93.3939 111.491 93.465C111.184 93.536 110.859 93.5372 110.551 93.4686C110.274 93.4069 110.018 93.2953 109.8 93.1417C109.581 92.9881 109.406 92.7964 109.288 92.5801C109.137 92.2412 109.137 91.8689 109.288 91.53C110.551 90.8838 110.065 90.1568 109.773 89.5913L109.482 89.1067C109.402 88.9084 109.276 88.7255 109.11 88.5688C108.943 88.412 108.741 88.2846 108.514 88.1942C108.288 88.1038 108.042 88.0521 107.791 88.0424C107.539 88.0326 107.289 88.0649 107.053 88.1374C106.79 88.1457 106.528 88.1184 106.276 88.0566H106.081C104.818 87.895 104.235 87.168 103.555 86.1179C103.114 85.4844 102.557 84.9121 101.903 84.4216C101.473 84.0517 101.019 83.7011 100.543 83.3715C100.349 83.2907 100.252 83.1292 100.057 83.0484C100.446 82.5518 100.692 81.9875 100.776 81.3992C100.86 80.8109 100.781 80.2143 100.543 79.6557L100.349 79.0903L99.4742 82.7253L96.3651 81.6752C96.4622 81.5136 96.6566 81.2713 96.7537 81.1097C97.1461 80.6161 97.5029 80.1036 97.8225 79.575C97.9548 79.2086 97.988 78.8224 97.9197 78.4441V77.7979H95.8793C95.8793 77.6363 95.9764 77.5555 95.9764 77.394C96.102 77.0266 96.135 76.6416 96.0736 76.2631L96.2679 76.0208L95.9764 76.1016V76.0208C95.7821 75.7784 95.6849 75.6169 95.3935 75.6169C95.102 75.6169 94.8105 75.7784 94.519 75.94C94.4463 76.0108 94.3573 76.0687 94.2571 76.1104C94.157 76.152 94.0478 76.1765 93.936 76.1823V75.7784C93.9432 75.4139 93.8432 75.0534 93.6446 74.7283C93.4502 74.4052 93.0616 74.2437 92.7701 74.0013C92.6239 73.9409 92.4922 73.8588 92.3815 73.759L92.2843 73.6782L92.1871 73.759C92.09 73.8398 91.9928 74.0013 91.8956 74.0821C91.6042 74.3245 91.4098 74.6476 91.1184 74.8899C91.0212 74.9707 91.0212 75.1322 90.924 75.2938C90.9073 75.3783 90.8745 75.4601 90.8269 75.5361C90.2556 76.0512 89.8924 76.7019 89.7878 77.3971C89.6833 78.0923 89.8428 78.7973 90.2439 79.4134C90.4382 79.9789 90.7297 80.4635 90.924 81.029C91.0332 81.2049 91.0993 81.3971 91.1184 81.5944C85.8716 82.8868 82.9568 85.5525 82.3738 89.8337C82.3471 90.1056 82.2101 90.362 81.9852 90.5607C81.248 91.0638 80.4688 91.5227 79.6533 91.9339C79.459 92.0954 79.1675 92.1762 78.9732 92.3378C78.5483 90.0035 78.614 87.6257 79.1675 85.3101C80.219 81.3534 82.874 77.8171 86.6878 75.2938C94.3635 70.2856 102.914 69.397 112.144 72.7089C115.508 73.9935 119.135 74.7337 122.832 74.8899C123.546 74.9033 124.26 74.8763 124.969 74.8091C125.261 74.8091 125.65 74.7283 125.941 74.7283H126.135V74.0821L119.82 73.9206L119.917 71.2549C119.893 70.841 119.986 70.4282 120.189 70.0495C120.391 69.6708 120.698 69.3367 121.083 69.0739C125.013 66.0465 128.012 62.2791 129.827 58.0882C130 57.7783 130.131 57.4531 130.216 57.1189C130.313 56.9574 130.313 56.7958 130.41 56.6343V56.4727L129.73 56.2304L129.633 56.3111C129.633 56.3919 129.536 56.4727 129.536 56.5535L129.245 57.0381C127.329 61.7112 123.98 65.8878 119.528 69.1547C119.031 69.5574 118.435 69.8668 117.781 70.0619C117.128 70.2569 116.431 70.3332 115.739 70.2856C115.223 70.1909 114.742 69.9948 114.337 69.7137C113.931 69.4326 113.612 69.0747 113.407 68.6701L113.116 68.1854C113.105 68.1242 113.071 68.0674 113.019 68.0238L112.921 67.9431L111.172 68.1854L111.27 68.1046C112.347 67.3233 113.01 66.2204 113.116 65.0351V64.6312L112.824 64.9543C112.542 65.2187 112.313 65.5186 112.144 65.8429C111.853 66.166 111.658 66.4891 111.367 66.8122C111.075 67.1353 110.201 67.62 109.812 67.5392C109.424 67.4584 109.229 67.0545 108.938 66.6506C108.835 66.5616 108.768 66.449 108.743 66.3275C108.646 66.2467 108.646 66.0852 108.549 65.8429C108.452 65.6005 108.452 65.5197 108.452 65.3582L108.355 65.1159L108.16 65.2774L107.675 65.6813C107.524 65.9046 107.283 66.0764 106.995 66.166C106.81 66.2481 106.646 66.3576 106.509 66.4891C106.12 66.7314 105.537 67.1353 105.343 67.0545C104.75 66.7073 104.334 66.1889 104.177 65.6005C103.885 64.7927 103.691 63.985 103.497 63.1772C103.327 62.3856 103.1 61.6034 102.817 60.8347C102.661 60.2438 102.268 59.7144 101.703 59.3329C101.139 58.9515 100.435 58.7405 99.7074 58.7345C99.207 58.7411 98.7159 58.621 98.2994 58.3901C97.8829 58.1593 97.5607 57.8286 97.3756 57.442C96.5073 56.1617 95.464 54.969 94.2664 53.8878C93.5553 53.295 93.0389 52.5604 92.7668 51.7543C92.4946 50.9481 92.4757 50.0975 92.7118 49.2835C92.824 48.9133 92.8892 48.5342 92.9061 48.1527C92.9061 47.9911 93.0033 47.7488 93.0033 47.5872H94.3636C95.5295 47.5872 96.7926 47.5872 98.0557 47.5064C101.787 47.3072 105.533 47.4426 109.229 47.9103C111.367 48.1527 114.379 48.395 117.002 46.6179C117.29 46.3689 117.551 46.0986 117.779 45.8101C117.877 45.6486 117.974 45.5678 118.071 45.4062L118.168 45.3255C118.266 45.6544 118.459 45.9585 118.73 46.2118C119.001 46.4651 119.341 46.6599 119.723 46.7794C119.82 46.7794 119.82 47.0218 119.917 47.1833C120.014 47.3449 120.014 47.4257 120.111 47.5872L120.208 47.7488L121.472 47.2641L121.374 47.1026C121.277 47.0218 121.277 46.941 121.18 46.8602C121.083 46.7794 120.889 46.4563 120.694 46.2948L120.111 46.0524C119.993 46.034 119.88 45.9959 119.78 45.9404C119.68 45.8848 119.594 45.8131 119.528 45.7293C119.304 45.2952 119.269 44.8092 119.431 44.3561C119.453 44.268 119.499 44.1853 119.567 44.1151C119.634 44.0448 119.721 43.989 119.82 43.9522C120.146 43.9019 120.483 43.9299 120.791 44.033C121.136 44.2115 121.493 44.3733 121.86 44.5177C122.67 44.8464 123.449 45.2244 124.192 45.6486C125.041 46.0937 125.766 46.6842 126.319 47.3807C126.872 48.0771 127.24 48.8635 127.398 49.6874C127.42 50.1769 127.25 50.6589 126.913 51.0606C126.576 51.1811 126.201 51.2094 125.844 51.1414C125.747 51.1414 125.65 50.7375 125.65 50.4144C125.659 50.1782 125.761 49.9511 125.941 49.7682C126.038 49.6874 126.038 49.5259 126.135 49.4451L126.233 49.2835L125.358 49.122V49.2835C125.326 49.4788 125.261 49.6692 125.164 49.849C124.958 50.257 124.891 50.7039 124.969 51.1414C124.969 51.3837 125.455 51.7069 125.747 51.8684C125.944 51.9861 126.184 52.0432 126.427 52.03C127.193 51.8165 127.845 51.3881 128.273 50.8183C128.519 50.2713 128.519 49.669 128.273 49.122C127.641 47.308 126.221 45.7537 124.289 44.76C123.383 44.2816 122.442 43.8499 121.472 43.4676L120.306 42.9829L121.083 42.0136C121.262 42.2867 121.532 42.5111 121.86 42.6598C122.102 42.7289 122.359 42.7503 122.612 42.7222C122.865 42.6942 123.107 42.6175 123.318 42.4983C123.318 42.579 123.415 42.6598 123.415 42.8214C123.512 43.1445 123.706 43.3868 123.803 43.7099C123.982 44.0372 124.252 44.3248 124.589 44.5494C124.927 44.7739 125.323 44.9291 125.747 45.0023C126.18 45.0287 126.614 44.9605 127.006 44.8047C127.398 44.6489 127.734 44.4107 127.981 44.1138L128.564 43.6291C128.467 43.7907 128.37 43.8715 128.273 44.033C127.97 44.3748 127.74 44.7573 127.593 45.1639C127.496 45.6486 127.981 46.0525 128.37 46.5371C128.467 46.6179 128.564 46.7794 128.662 46.8602L127.593 47.0218V47.4257L128.37 47.5872C128.286 47.9625 128.343 48.3504 128.535 48.6975C128.726 49.0446 129.042 49.3339 129.439 49.5259C130.459 50.1797 131.25 51.0493 131.729 52.0439C132.207 53.0385 132.356 54.1216 132.159 55.1803C131.976 56.3588 131.944 57.5502 132.062 58.7345C132.451 62.2887 136.143 66.0044 141.001 66.4083C141.486 66.4487 141.974 66.4487 142.458 66.4083C143.139 66.4083 143.819 66.3275 144.499 66.3275L145.665 66.2467L145.568 66.0852C145.179 65.3582 144.985 65.3582 143.722 65.5197C141.856 65.8007 139.931 65.585 138.221 64.9033C136.511 64.2217 135.104 63.1088 134.2 61.7232C133.071 59.8804 132.696 57.7818 133.131 55.7457C133.714 52.9185 132.451 50.4952 129.536 48.5565L130.313 47.668C130.307 47.7118 130.312 47.7563 130.329 47.7982C130.346 47.8401 130.374 47.8784 130.41 47.9103C130.495 48.2707 130.626 48.6227 130.799 48.9604C131.382 50.1721 132.257 50.8183 133.52 50.8183C134.124 50.8426 134.723 50.7175 135.242 50.4587C135.761 50.1999 136.176 49.8191 136.434 49.3643C136.726 48.9604 136.92 48.5565 137.212 48.1527C137.309 48.0719 137.309 47.9103 137.406 47.8295C137.6 47.5064 137.795 47.1026 138.086 47.0218C138.254 47.0164 138.42 47.0441 138.572 47.1026C138.961 47.2641 139.446 47.9103 139.349 48.1527C138.923 49.2709 138.37 50.3528 137.698 51.3837C136.668 52.6926 136.035 54.1892 135.851 55.7457C135.82 56.021 135.855 56.2987 135.955 56.5624C136.055 56.8261 136.218 57.0703 136.434 57.2805C136.667 57.4571 136.947 57.5856 137.251 57.6558C137.555 57.7259 137.874 57.7357 138.183 57.6844C138.806 57.6494 139.424 57.5683 140.029 57.442C140.224 57.442 140.321 57.3613 140.515 57.3613L139.544 59.2191L143.041 58.169L143.527 56.9574L141.487 56.8766L143.527 55.4226L143.041 54.9379L141.487 55.8265L141.681 54.6148L139.544 55.3418V55.4226C139.349 55.7457 139.349 55.988 139.544 56.1496C139.738 56.3919 140.029 56.3919 140.418 56.3919H140.612C140.539 56.4005 140.47 56.4288 140.418 56.4727L138.961 56.9574C138.765 57.0391 138.548 57.0816 138.329 57.0816C138.11 57.0816 137.894 57.0391 137.698 56.9574C137.527 56.8368 137.387 56.6888 137.287 56.5222C137.187 56.3556 137.128 56.1739 137.115 55.988C137.05 54.7314 137.458 53.4892 138.281 52.4338C138.378 52.1915 138.572 52.03 138.669 51.7876C139.382 50.7509 139.999 49.6708 140.515 48.5565C140.677 48.1035 140.643 47.6175 140.418 47.1833C140.294 46.9785 140.116 46.7994 139.897 46.6596C139.679 46.5198 139.425 46.4227 139.155 46.3756C138.906 46.3143 138.645 46.295 138.387 46.319C138.129 46.3429 137.88 46.4096 137.653 46.515C137.427 46.6204 137.228 46.7624 137.069 46.9327C136.91 47.103 136.793 47.2981 136.726 47.5064C136.406 48.1698 135.982 48.7946 135.463 49.3643C135.251 49.5827 134.985 49.7607 134.684 49.8861C134.382 50.0116 134.051 50.0815 133.714 50.0913V50.0913C133.341 50.045 132.991 49.9153 132.7 49.7161C132.409 49.5169 132.188 49.2557 132.062 48.9604C131.395 47.8055 131.191 46.5032 131.479 45.2447C131.601 44.8478 131.551 44.4281 131.338 44.0589C131.124 43.6897 130.762 43.3946 130.313 43.2252L130.41 42.3367L129.925 42.0136L129.827 42.0944C129.633 42.2559 129.342 42.4175 129.147 42.579C128.662 42.9829 128.079 43.306 127.593 43.7099L127.398 43.8715C126.913 44.2754 126.621 44.5177 126.038 44.2754C125.715 44.1731 125.425 44.0107 125.189 43.8007C124.953 43.5907 124.778 43.3386 124.678 43.0637L125.455 43.6291L126.913 42.2559L126.135 41.5289L127.01 39.9134L123.706 41.125L123.415 41.3674C123.22 41.5289 122.735 41.852 122.54 41.7713C122.152 41.6905 121.86 41.2866 121.569 40.9635C121.437 40.7829 121.273 40.6195 121.083 40.4788L120.889 40.3173L120.791 40.5596C120.684 40.707 120.617 40.8726 120.597 41.0443C119.917 42.4983 119.237 43.7907 117.099 43.9522C115.253 44.033 114.379 43.0637 113.504 42.0944C113.269 41.8097 113.01 41.5397 112.727 41.2866L113.796 39.3479L113.31 39.1056L112.533 39.5095L111.755 38.2978L111.27 39.9942L109.618 39.9134L109.424 40.6404L112.047 41.125C112.047 41.3674 112.144 41.6905 112.144 42.0136C112.338 42.9021 112.436 43.8715 112.533 44.8408C112.533 45.1639 112.338 45.7293 112.047 45.8101C111.95 45.8909 111.561 45.7293 111.27 45.6486C111.172 45.6486 111.172 45.5678 111.075 45.5678L112.241 43.0637L111.658 42.9021L111.561 43.0637C110.881 44.3561 110.492 45.1639 110.104 45.1639C109.715 45.1639 109.326 44.6792 108.646 43.9522L110.687 42.4175L110.492 42.3367C110.298 42.2559 110.104 42.0944 109.909 42.0136C109.521 41.7713 109.229 41.6097 108.938 41.4481C108.646 41.2866 108.258 41.2058 107.966 41.0443C107.869 40.9635 107.675 40.9635 107.578 40.8827L107.48 40.8019L106.995 41.2866L107.869 42.3367H106.217L106.12 42.9021L106.897 43.306L107.092 44.1138L105.926 45.7293H106.217C106.703 45.7293 106.8 45.487 106.995 45.3255C107.383 44.8408 107.578 44.5985 107.772 44.5985C107.966 44.5985 108.355 44.8408 108.841 45.2447C109.534 45.7512 110.321 46.1605 111.172 46.4563C111.391 46.5517 111.619 46.6327 111.853 46.6987H112.241C112.436 46.6179 112.824 46.4563 112.921 46.214C113.144 45.6661 113.275 45.0953 113.31 44.5177C113.31 44.1138 113.213 43.7099 113.213 43.306C113.785 43.9798 114.62 44.4685 115.576 44.6893C116.533 44.9101 117.551 44.8495 118.46 44.5177V45.0831L118.168 45.2447C117.758 45.4317 117.368 45.6479 117.002 45.8909C116.292 46.3807 115.464 46.7388 114.573 46.941C113.143 47.2307 111.664 47.3126 110.201 47.1833L105.051 46.941L99.3188 46.6987C97.5699 46.6987 95.9181 46.6987 94.1692 46.7794C93.3919 46.7794 92.7118 46.8602 91.9345 46.8602L93.1004 46.214V46.1332C92.9913 45.81 93.0185 45.4654 93.1776 45.1568C93.3367 44.8482 93.6181 44.5941 93.9749 44.4369C94.1692 44.2754 94.1692 43.9522 94.0721 43.4676C94.0721 43.2252 93.9749 42.9829 93.9749 42.7406V42.3367L93.2948 43.2252L92.226 41.6905C93.2656 40.9112 94.6155 40.4796 96.0153 40.4788C95.9181 40.6404 95.7238 40.8019 95.6266 40.9635C95.238 41.5289 94.7522 42.0136 94.3636 42.579C94.2553 42.7224 94.19 42.8852 94.1731 43.0539C94.1562 43.2225 94.1882 43.3921 94.2664 43.5484C94.3684 43.7045 94.5069 43.8421 94.6737 43.953C94.8406 44.064 95.0324 44.1461 95.238 44.1946C95.4554 44.2608 95.6871 44.2884 95.9181 44.2754C95.3737 44.3919 94.87 44.6136 94.448 44.9224C94.0259 45.2312 93.6974 45.6183 93.4891 46.0524L93.3919 46.2948L93.6834 46.214H93.7806C93.8777 46.214 93.9749 46.1332 94.0721 46.1332C95.821 44.6792 97.2784 44.5985 99.5131 45.8101C100.429 46.2566 101.464 46.5065 102.525 46.5371C103.02 46.5406 103.511 46.4559 103.963 46.2887C104.416 46.1215 104.82 45.8757 105.148 45.5678C105.416 45.3644 105.625 45.1135 105.759 44.8338C105.894 44.5541 105.951 44.2528 105.926 43.9522L105.829 43.6291L105.537 43.8715C105.343 44.033 105.148 44.2754 104.954 44.4369C104.577 44.872 104.117 45.2538 103.594 45.5678C102.234 46.214 101.068 45.8101 99.5131 45.0831C98.6694 44.7144 97.7432 44.4944 96.7926 44.4369C98.088 44.4468 99.363 44.1679 100.485 43.6291C100.868 43.49 101.198 43.2656 101.438 42.9805C101.678 42.6955 101.819 42.3609 101.845 42.0136C101.812 41.6471 101.671 41.2931 101.433 40.9831C101.196 40.673 100.87 40.4166 100.485 40.2365C100.093 40.027 99.6677 39.8639 99.2216 39.7518C99.1245 39.7518 99.1245 39.6711 99.0273 39.6711C111.172 35.6322 127.884 37.4901 138.086 43.9522L138.475 44.1946L138.378 43.7907C138.369 43.595 138.303 43.4041 138.184 43.235C138.065 43.0659 137.898 42.9238 137.698 42.8214C132.175 39.6674 125.8 37.6972 119.14 37.0862L115.739 36.8439H115.545C116.026 36.7631 116.521 36.7631 117.002 36.8439H117.196C121.472 37.167 125.941 37.4901 130.119 38.7017C134.668 39.9528 138.912 41.8675 142.653 44.3561C143.205 44.7755 143.593 45.3232 143.766 45.9282C143.94 46.5332 143.89 47.1675 143.624 47.7488C143.139 48.9604 141.875 49.4451 140.71 49.849C140.339 49.9761 140.002 50.1628 139.719 50.3985C139.435 50.6341 139.211 50.9141 139.058 51.2222C139.062 51.5533 139.173 51.8774 139.378 52.1613C139.582 52.4452 139.874 52.6787 140.224 52.8377C141.14 53.3252 142.164 53.6548 143.236 53.8071C144.015 53.8674 144.763 54.0919 145.409 54.4594C146.055 54.8269 146.578 55.3252 146.928 55.9073C147.254 56.4805 147.407 57.1113 147.373 57.7448C147.339 58.3783 147.12 58.9953 146.734 59.5422C145.665 61.4001 145.762 63.0156 147.122 64.4696C148.482 65.9236 150.523 66.4891 152.077 65.8429L152.466 65.6813L152.077 65.6005C151.883 65.5197 151.689 65.5197 151.592 65.439C151.283 65.3215 150.956 65.24 150.62 65.1966C149.937 65.1297 149.286 64.9191 148.729 64.5847C148.171 64.2503 147.725 63.8032 147.433 63.2856C147.142 62.7681 147.013 62.1972 147.061 61.627C147.109 61.0567 147.33 60.506 147.705 60.0269C148.176 59.4388 148.475 58.7668 148.576 58.0653C148.677 57.3637 148.579 56.6521 148.288 55.988C147.936 55.2614 147.369 54.6208 146.638 54.1264C145.907 53.6319 145.037 53.2997 144.11 53.1608C143.334 53.0306 142.582 52.8132 141.875 52.5146C141.415 52.2914 140.99 52.0199 140.612 51.7069L140.224 51.3837C140.321 51.303 140.515 51.2222 140.612 51.0606C140.932 50.7501 141.33 50.5019 141.778 50.3336C142.617 50.0903 143.359 49.6603 143.925 49.0907C144.49 48.521 144.857 47.8334 144.985 47.1026C145.121 46.3503 145.003 45.5813 144.642 44.882C144.282 44.1827 143.694 43.581 142.944 43.1445C136.792 39.2185 129.469 36.761 121.763 36.0361C118.761 35.7673 115.735 35.7403 112.727 35.9553C107.964 36.1593 103.287 37.0903 98.9301 38.7017C98.1103 39.0635 97.2237 39.3092 96.3068 39.4287C94.7761 39.5588 93.3057 39.9939 92.0202 40.697C90.7347 41.4001 89.6722 42.3504 88.9225 43.4676C88.5061 43.9216 88.2196 44.4486 88.0849 45.0085C87.9503 45.5684 87.9709 46.1464 88.1452 46.6987L88.2424 47.0218L88.4367 46.6987C88.642 46.3077 88.8046 45.9022 88.9225 45.487L89.214 44.76C89.4083 44.4369 89.6998 44.033 89.797 44.033H89.9913L89.8941 44.1138C89.7918 44.2029 89.7241 44.3154 89.6998 44.4369C89.7044 44.4999 89.7366 44.5594 89.7903 44.604C89.844 44.6486 89.9155 44.6754 89.9913 44.6792C90.2318 44.7972 90.4323 44.964 90.5743 45.1639C90.6392 45.4699 90.5703 45.7851 90.3799 46.0524C90.2828 46.1332 90.3799 46.214 90.4771 46.2948C90.4771 46.3162 90.4873 46.3368 90.5055 46.3519C90.5238 46.367 90.5485 46.3756 90.5743 46.3756L90.6714 46.5371L91.1572 46.214L91.2544 46.8602C89.5055 47.4257 88.5339 48.0719 88.2424 48.7181C88.1567 48.9319 88.1297 49.159 88.1634 49.3826C88.197 49.6063 88.2904 49.8208 88.4367 50.0105C88.739 50.5235 89.2578 50.926 89.8941 51.1414C90.151 51.2144 90.4245 51.2377 90.6938 51.2097C90.9632 51.1818 91.2213 51.1031 91.4487 50.9799L91.643 50.8991L91.3515 52.3531C90.9007 54.2147 91.3174 56.1493 92.5175 57.7651C92.9462 58.3509 93.5258 58.8504 94.2147 59.2276C94.9035 59.6047 95.6844 59.8501 96.5011 59.9461C96.7852 59.9536 97.0584 60.0388 97.2784 60.1885C97.3521 60.197 97.4203 60.2254 97.4727 60.2692C97.1527 60.8548 97.1179 61.5207 97.3756 62.1271C97.667 62.6118 98.4443 62.8541 99.4159 63.0964C99.2853 63.6468 99.3883 64.2177 99.7074 64.712C99.8397 64.8926 100.003 65.0559 100.193 65.1966C101.102 65.7122 102.126 66.0694 103.205 66.2467C103.108 66.4083 102.914 66.4891 102.719 66.6506C102.404 66.9014 102.112 67.1714 101.845 67.4584C101.683 67.6 101.551 67.764 101.456 67.9431C101.26 68.2085 101.191 68.5256 101.262 68.8316C101.456 69.2355 102.039 69.4778 102.719 69.7202C102.601 69.7763 102.467 69.8043 102.331 69.8009C98.9211 69.7035 95.5261 70.2156 92.3748 71.3026C89.2236 72.3895 86.3897 74.026 84.0644 76.1016C81.9795 77.8604 80.3584 79.9612 79.3045 82.2699C78.2506 84.5786 77.787 87.0446 77.9433 89.5106C77.9276 89.7026 77.9607 89.8953 78.0404 90.076C78.2347 91.8531 78.3319 93.5494 76.2915 94.7611L76 95.0034C72.0164 99.6077 71.142 104.454 73.2795 109.463C73.6868 110.301 74.1742 111.112 74.7369 111.886C74.9313 112.209 75.2227 112.532 75.4171 112.855C69.5874 116.409 65.2151 122.548 66.3811 125.618L66.5754 126.183L66.6725 125.618C67.0837 123.128 68.1091 120.735 69.6845 118.59C71.2369 116.532 73.3296 114.792 75.8057 113.501C76.1944 113.905 76.583 114.228 76.9717 114.632C77.8461 115.521 78.7206 116.329 79.595 117.056C81.8297 118.994 84.3559 120.933 87.7566 121.579C90.5552 122.097 93.1578 123.179 95.3352 124.729C100.388 128.203 106.509 129.657 114.087 129.091C116.031 128.93 118.071 128.607 120.014 128.284C120.889 128.122 121.763 128.041 122.638 127.88C124.095 130.545 128.467 131.272 132.062 130.384C134.297 132.322 135.851 132.807 137.989 132.242H138.086C138.632 132.16 139.146 131.97 139.586 131.689C140.025 131.408 140.377 131.044 140.612 130.626L140.807 130.222L140.321 130.465C140.127 130.545 140.029 130.626 139.932 130.626C139.835 130.626 139.641 130.788 139.544 130.788C138.997 131.136 138.37 131.388 137.701 131.527C137.033 131.666 136.337 131.689 135.657 131.595C135.053 131.535 134.475 131.357 133.968 131.076C133.462 130.796 133.042 130.42 132.742 129.98C132.548 129.657 131.771 129.657 131.479 129.657C130.993 129.657 130.508 129.738 129.925 129.738C129.024 129.859 128.105 129.859 127.204 129.738C126.384 129.686 125.595 129.458 124.913 129.075C124.232 128.693 123.682 128.17 123.318 127.557C123.901 127.072 124.386 126.668 124.969 126.264C126.233 125.214 127.398 124.245 128.564 123.195C128.77 123.066 128.925 122.891 129.011 122.69C129.098 122.489 129.111 122.271 129.05 122.064C128.901 121.874 128.7 121.717 128.464 121.604C128.227 121.492 127.962 121.428 127.69 121.418C127.043 121.377 126.394 121.377 125.747 121.418C125.484 121.4 125.219 121.428 124.969 121.498L124.484 120.933C125.067 120.691 125.552 120.448 126.135 120.206C127.632 119.623 129.092 118.976 130.508 118.267C130.85 118.07 131.257 117.965 131.674 117.965C132.09 117.965 132.497 118.07 132.839 118.267C135.851 119.721 137.115 122.064 138.086 124.245C139.349 127.072 139.155 127.476 135.949 128.768C135.851 128.849 135.851 128.849 135.851 128.93V129.253H136.046C136.68 129.29 137.315 129.182 137.881 128.94C138.446 128.698 138.921 128.331 139.252 127.88C140.418 126.587 141.875 126.264 143.236 127.072C144.167 127.533 145.185 127.861 146.248 128.041C146.539 128.122 146.734 128.122 147.025 128.203C147.317 128.284 147.511 128.284 147.608 128.445C147.793 128.603 147.927 128.798 147.997 129.011V129.091H147.802C147.518 129.158 147.223 129.185 146.928 129.172C146.685 129.126 146.455 129.044 146.248 128.93C146.151 128.849 146.053 128.849 145.859 128.768L145.373 128.607L146.539 130.465L145.082 130.707V130.788C145.003 130.912 144.97 131.052 144.985 131.192C144.935 131.458 144.801 131.709 144.596 131.919C144.381 132.076 144.105 132.163 143.819 132.163C143.533 132.163 143.256 132.076 143.041 131.919C142.559 131.682 141.998 131.577 141.44 131.621C140.881 131.664 140.354 131.853 139.932 132.161L139.544 132.403H140.029C140.356 132.39 140.684 132.417 141.001 132.484C141.568 132.423 142.145 132.508 142.653 132.726C142.994 132.886 143.379 132.969 143.77 132.969C144.161 132.969 144.546 132.886 144.888 132.726L145.179 132.565C146.035 132.211 146.771 131.683 147.317 131.03C147.669 130.486 148.168 130.016 148.774 129.657C148.843 129.607 148.896 129.545 148.93 129.474C148.964 129.404 148.977 129.328 148.968 129.253C149.012 129.115 149.017 128.97 148.984 128.83C148.95 128.69 148.878 128.559 148.774 128.445C148.331 128.067 147.802 127.765 147.219 127.557C146.875 127.457 146.515 127.402 146.151 127.395C145.665 127.314 145.179 127.314 144.888 127.072C144.263 126.582 143.487 126.246 142.646 126.104C141.804 125.961 140.932 126.016 140.127 126.264L136.726 119.802L144.79 115.602C152.175 119.964 149.843 123.195 148.677 125.699C148.968 126.103 150.329 125.295 151.009 123.195V123.203ZM96.5011 41.3674C96.7174 41.0709 97.015 40.8212 97.3697 40.6387C97.7243 40.4562 98.1258 40.346 98.5415 40.3173C98.9659 40.3361 99.3817 40.4242 99.7652 40.5767C100.149 40.7292 100.492 40.9429 100.776 41.2058C100.935 41.3295 101.061 41.4799 101.145 41.647C101.228 41.8141 101.268 41.9942 101.262 42.1751C101.154 42.415 100.948 42.6154 100.679 42.7406C99.763 43.0852 98.8219 43.382 97.8614 43.6291C97.4908 43.7007 97.1319 43.8092 96.7926 43.9522L96.6954 43.7099H96.5983C95.821 43.6291 95.4323 43.5484 95.3352 43.3868C95.238 43.2252 95.3352 42.9021 95.821 42.3367C95.9181 42.1751 96.1125 42.0136 96.3068 41.7713C96.3068 41.6097 96.4039 41.5289 96.5011 41.3674V41.3674ZM90.4771 43.4676C90.9291 42.7927 91.5605 42.2125 92.3232 41.7713V42.1751C92.226 43.4676 91.4487 43.4676 90.4771 43.4676V43.4676ZM92.1288 49.2835C92.0317 49.849 91.9345 50.4952 91.8373 51.1414L91.643 51.0606C89.5055 50.576 89.214 50.1721 89.3112 49.4451C89.4083 48.7181 90.7686 47.9911 92.5175 47.8295C92.3232 48.395 92.226 48.8796 92.1288 49.2835V49.2835ZM94.7522 58.896C93.6458 58.2216 92.8435 57.2582 92.4736 56.1598C92.1037 55.0615 92.1875 53.8917 92.7118 52.8377L93.8777 54.2917C94.8676 55.6021 95.9378 56.8692 97.0841 58.0882C97.636 58.5548 98.2562 58.9618 98.9301 59.2999C99.2216 59.4615 99.4159 59.5422 99.7074 59.7038H99.6103C97.9268 59.928 96.2024 59.6413 94.7522 58.896V58.896ZM101.165 65.1966C100.679 64.712 100.582 63.985 100.873 62.8541V62.6925H100.679C100.542 62.6805 100.404 62.7091 100.29 62.7733C99.9989 62.7733 99.8046 62.8541 99.7074 62.7733C99.2111 62.6369 98.7726 62.3845 98.4443 62.0463C98.3881 61.6881 98.4555 61.3239 98.6387 60.9962C99.2604 60.9152 99.8969 60.9709 100.485 61.1578C100.873 61.3193 101.262 61.4809 101.748 61.7232C101.942 61.804 102.136 61.9655 102.331 62.0463L102.428 62.1271L102.622 62.0463L103.4 65.9236C102.578 65.8943 101.792 65.6385 101.165 65.1966ZM115.448 71.6588L119.334 70.851V71.2549C119.383 71.8196 119.383 72.3865 119.334 72.9512C119.237 73.2743 119.14 73.5975 118.848 73.6782C118.697 73.7385 118.531 73.7697 118.362 73.7697C118.194 73.7697 118.028 73.7385 117.877 73.6782C117.779 73.6782 117.682 73.5975 117.585 73.5975C117.488 73.5975 117.294 73.4359 117.099 73.4359C115.253 73.1128 115.156 73.1128 115.448 71.6588ZM102.428 69.0739C102.46 68.8787 102.525 68.6882 102.622 68.5085C102.921 68.2194 103.246 67.9494 103.594 67.7007L103.885 67.4584C105.829 68.3469 106.703 68.2662 107.772 66.9737C107.966 67.1353 108.16 67.2161 108.258 67.3776L109.715 68.5893C110.049 68.9489 110.528 69.196 111.063 69.2851C111.599 69.3741 112.155 69.2991 112.63 69.0739C112.824 69.3163 112.921 69.4778 113.116 69.7202C113.602 70.3664 114.087 71.0126 114.476 71.6588C114.573 71.8204 114.379 72.0627 114.282 72.305C114.282 72.3265 114.271 72.347 114.253 72.3621C114.235 72.3773 114.21 72.3858 114.184 72.3858L104.177 70.0433L105.634 69.1547L105.343 68.7508H105.246C105.051 68.8316 104.857 68.8316 104.663 68.9124C104.19 69.0576 103.702 69.1657 103.205 69.2355C102.933 69.241 102.665 69.1852 102.428 69.0739V69.0739ZM112.397 88.1454C112.688 87.2569 112.883 86.853 112.591 86.5299C112.3 86.2068 111.814 86.126 110.745 85.9644C110.272 85.9255 109.835 85.7353 109.527 85.4339C109.219 85.1326 109.063 84.7436 109.093 84.3489L110.259 84.5105L110.648 84.0258L108.413 82.8141L111.425 83.0565L111.134 82.8141C111.036 82.6526 110.842 82.5718 110.745 82.491C110.555 82.3503 110.391 82.187 110.259 82.0064V81.4409H110.648C110.785 81.4288 110.922 81.4574 111.036 81.5217C111.254 81.6925 111.45 81.882 111.619 82.0871L111.911 82.3295L112.008 82.4102L112.494 82.0871L111.717 80.4716H112.397C112.859 80.4346 113.326 80.4899 113.757 80.6331C115.263 81.1534 116.501 82.0969 117.255 83.2988C118.915 85.4699 120.068 87.8813 120.655 90.4072C120.655 90.5687 120.753 90.8111 120.753 90.8918V90.9726L119.392 91.215C117.838 91.4573 116.38 91.7804 115.02 92.0227C114.789 92.0357 114.557 92.0082 114.34 91.942C113.508 91.6215 112.849 91.0559 112.49 90.3545C112.131 89.6531 112.098 88.866 112.397 88.1454V88.1454ZM113.271 93.6383C115.312 92.3458 117.741 92.1843 120.558 92.1035C120.072 96.9501 116.866 99.9389 110.842 101.151L110.648 101.231L111.231 101.958L115.992 100.585C115.138 102.31 115.069 104.233 115.797 105.997C115.991 106.29 116.3 106.518 116.672 106.643L117.06 106.805L116.866 106.482C116.167 105.273 115.923 103.917 116.166 102.591C116.408 101.266 117.127 100.031 118.226 99.0503C119.684 97.5964 123.959 96.4655 126.291 97.2732L126.194 97.5964C125.416 101.958 124.542 106.482 121.433 110.359C119.392 112.944 116.477 114.236 112.98 113.913H112.883C111.346 113.765 109.877 113.305 108.606 112.572C107.335 111.839 106.301 110.857 105.595 109.713C104.148 107.54 103.411 105.089 103.458 102.605C103.483 101.407 103.32 100.212 102.972 99.0503C104.818 99.2927 106.373 98.5657 107.927 97.8387C106.761 100.747 106.956 103.17 108.607 105.351L109.385 106.401L108.996 105.27C107.247 100.424 108.705 96.5463 113.271 93.6383V93.6383ZM91.6042 79.6638C91.2141 79.1015 91.0443 78.4522 91.1184 77.8059C91.1985 77.5697 91.2313 77.3241 91.2155 77.079V76.9093L91.4098 78.848L92.1871 78.9288L92.2843 78.2018C92.3815 77.7171 92.3815 77.1517 92.4786 76.667V76.1016C92.5758 75.6169 92.6729 75.213 92.7701 74.7283C92.8673 74.7283 93.1587 74.7283 93.2559 74.8091C93.3826 75.3136 93.4154 75.8312 93.3531 76.3439C93.3287 76.4654 93.261 76.5779 93.1587 76.667C93.0616 76.7478 93.0616 76.8285 92.9644 76.9093L92.8673 76.9901L93.1587 77.4748L95.8793 76.7478L95.6849 76.9901C95.347 77.3408 95.0539 77.7198 94.8105 78.121C94.7133 78.2825 94.6162 78.3633 94.519 78.5249C94.5087 78.5861 94.4746 78.6428 94.4218 78.6864L94.3247 78.848L94.519 78.9288C94.6162 78.9288 94.7133 79.0095 94.8105 79.0095C94.9077 79.0095 95.2963 79.2519 95.4906 79.1711C95.9942 79.0161 96.4817 78.827 96.948 78.6056C97.1424 78.5249 97.2395 78.4441 97.4339 78.3633C97.9197 78.7672 97.7253 79.0095 97.3367 79.4134C97.1743 79.555 97.0428 79.719 96.948 79.8981C96.7537 80.302 96.4622 80.7866 96.2679 81.1905L96.0736 81.5944H95.2963C94.6162 81.5944 94.0332 81.6752 93.3531 81.6752C92.6729 81.6752 92.2843 81.6752 92.1871 80.8674L91.6042 79.6557V79.6638ZM83.7341 89.5106C84.9 85.4717 88.2035 82.9676 93.0616 82.5637C95.3479 82.3666 97.649 82.7968 99.6138 83.7886C101.579 84.7803 103.099 86.2792 103.944 88.0566L103.069 87.9758V88.1374C103.069 88.3797 102.972 88.622 102.972 88.8643C102.859 89.4253 102.794 89.9921 102.778 90.5607C102.804 90.8957 102.903 91.2241 103.069 91.53C103.166 91.6915 103.652 91.7723 103.652 91.7723C103.652 91.7723 103.847 91.7723 103.847 91.6915L103.944 91.6108C104.195 91.3428 104.392 91.0427 104.527 90.7222C104.644 90.189 104.709 89.6487 104.721 89.1067V88.622C105.498 88.7836 105.984 88.9451 106.081 89.1067C105.965 89.3867 105.765 89.6371 105.498 89.8337L105.304 89.9952L107.053 90.3991L107.15 91.3684L108.899 90.803L108.996 90.8838C107.927 91.9339 108.51 92.9032 108.996 93.711C109.279 94.2471 109.313 94.8512 109.093 95.4073C108.859 96.119 108.302 96.7273 107.539 97.1036C106.722 97.4482 105.878 97.7451 105.012 97.9922C104.624 98.0729 104.332 98.2345 103.944 98.3153L103.749 98.396C103.441 98.4499 103.165 98.593 102.972 98.7999C102.72 98.1525 102.324 97.5498 101.806 97.0228C101.126 96.2958 100.349 95.5688 98.9884 95.8112C98.5083 95.9293 98.0791 96.1595 97.7518 96.4746C97.4245 96.7896 97.213 97.1762 97.1424 97.5883C96.5122 96.1231 95.4419 94.8163 94.0332 93.7918C93.606 93.4415 93.0301 93.2451 92.43 93.2451C91.83 93.2451 91.2541 93.4415 90.8269 93.7918C89.6609 94.5187 89.9524 95.3265 90.3411 96.0535C90.3411 96.1343 90.4382 96.2151 90.4382 96.2958C89.9919 96.2005 89.526 96.1872 89.0729 96.257C88.6198 96.3267 88.1905 96.4778 87.8149 96.6997C87.4713 96.978 87.2637 97.352 87.2319 97.7498C85.8178 96.7608 84.7477 95.4752 84.1326 94.0264C83.5176 92.5777 83.38 91.0185 83.7341 89.5106V89.5106ZM128.72 122.872C127.198 124.864 125 126.438 122.404 127.395C119.245 128.513 115.828 129.037 112.397 128.93C109.385 128.93 105.79 128.849 102.389 127.637C100.322 126.884 98.3658 125.935 96.5594 124.81C94.2647 123.28 91.6203 122.154 88.7865 121.498C85.7204 120.822 82.9751 119.385 80.9164 117.379L80.4306 116.975C78.2847 115.187 76.4234 113.178 74.8924 110.997C72.1719 106.716 72.4634 102.193 75.6697 97.3459C77.1817 95.2254 79.1985 93.3837 81.5965 91.9339C81.8119 91.8551 82.0092 91.7457 82.1795 91.6108C82.2767 91.6108 82.3738 91.53 82.471 91.53C82.6653 94.3572 84.2199 96.6997 87.3291 98.7999L86.9404 99.123C86.5323 99.4447 86.2024 99.8286 85.9688 100.254C85.8401 100.615 85.7996 100.994 85.8496 101.369C85.8997 101.743 86.0393 102.106 86.2603 102.435C87.2417 103.554 87.9664 104.813 88.3978 106.151C88.5815 106.675 88.8087 107.188 89.078 107.685C90.4739 110.882 92.5107 113.859 95.102 116.49C98.3184 119.494 102.61 121.561 107.344 122.387C110.952 123.033 114.67 123.142 118.324 122.71C116.081 124.287 113.288 125.222 110.356 125.376H110.162L110.453 126.103H110.939C111.266 126.116 111.594 126.089 111.911 126.022C113.93 125.793 115.841 125.124 117.449 124.083C119.314 122.962 121.484 122.24 123.765 121.983C123.911 122.003 124.046 122.059 124.153 122.145C124.153 122.306 124.153 122.548 123.959 122.629C123.182 123.195 122.404 123.76 121.724 124.326C121.336 124.649 120.947 124.891 120.558 125.214C120.373 125.372 120.239 125.567 120.17 125.78L120.072 126.103L120.461 125.941C121.267 125.556 122.017 125.096 122.696 124.568C124.542 123.437 126.194 122.306 128.72 122.872V122.872ZM143.003 116.086C141.344 117.05 139.625 117.94 137.853 118.752C137.367 118.994 136.979 119.156 136.493 119.398C136.326 119.427 136.154 119.428 135.987 119.4C135.82 119.372 135.662 119.317 135.521 119.237C134.867 118.906 134.249 118.527 133.675 118.106C133.481 117.944 133.286 117.863 133.092 117.702C133.481 117.459 133.772 117.136 134.161 116.894C135.035 116.167 136.007 115.521 136.881 114.794C139.991 112.451 142.517 109.463 145.334 105.343C147.491 102.038 149.437 98.6404 151.164 95.165C152.524 92.4993 153.593 89.7529 154.759 87.0872C155.245 85.8756 155.828 84.5832 156.314 83.3715C156.411 83.2907 156.411 83.1292 156.508 83.0484L156.605 82.9676H156.799V85.9564C156.88 88.2463 156.816 90.5382 156.605 92.8224C155.731 99.2846 153.69 104.697 150.193 109.301C148.398 111.959 145.948 114.271 143.003 116.086" fill="#007BFF"/>
<path d="M112.726 53.1689L112.92 53.0073L112.726 52.9265C112.337 52.765 111.754 52.6034 111.56 52.8457C110.103 54.2997 108.062 54.9459 106.119 55.5922C105.686 55.6627 105.262 55.771 104.856 55.9153C104.469 56.0057 104.109 56.16 103.795 56.3688C103.482 56.5775 103.222 56.8366 103.032 57.1306C102.842 57.4246 102.724 57.7474 102.687 58.0798C102.65 58.4122 102.694 58.7475 102.816 59.0656L103.01 59.631L103.204 59.0656C103.69 57.3693 105.147 56.723 106.702 56.3192C107.756 56.0409 108.766 55.6614 109.714 55.1883C110.491 54.7844 111.172 54.2997 111.949 53.8151C112.156 53.5606 112.42 53.3413 112.726 53.1689" fill="#007BFF"/>
<path d="M106.217 57.9348C106.314 57.6116 105.44 57.127 105.246 58.0155C105.183 58.5282 105.216 59.0459 105.343 59.5503C105.396 59.8071 105.521 60.0502 105.706 60.2604C105.891 60.4706 106.133 60.6423 106.411 60.762C106.653 60.8286 106.91 60.8487 107.163 60.8207C107.415 60.7927 107.657 60.7174 107.869 60.6004C109.812 59.6311 110.881 57.854 111.27 55.673V55.3499C111.27 55.3499 110.589 54.8652 110.201 56.3192C109.618 57.854 109.132 58.9041 107.869 59.7119C107.577 59.8734 106.8 60.2773 106.411 59.8734C106.109 59.2591 106.041 58.5822 106.217 57.9348" fill="#007BFF"/>
<path d="M135.268 50.9072C134.976 50.7456 134.394 51.1495 134.296 51.3111C134.125 51.5653 133.995 51.8368 133.908 52.1188C133.811 52.2804 133.811 52.3612 133.713 52.5227L133.616 52.7651L134.879 52.6035L136.24 54.4614L136.337 54.0575C136.337 53.7344 136.434 53.492 136.434 53.2497C136.561 52.7726 136.593 52.2816 136.531 51.7957C136.434 51.4726 135.851 51.1495 135.268 50.9072" fill="#007BFF"/>
<path d="M110.453 81.4409H110.162C110.356 81.3602 110.453 81.4409 110.453 81.4409Z" fill="#007BFF"/>
<path d="M110.006 81.3602C110.021 81.4998 109.988 81.6401 109.909 81.7641C109.988 81.6401 110.021 81.4998 110.006 81.3602Z" fill="#007BFF"/>
<mask id="path-10-inside-2" fill="white">
<path d="M200.94 26.4393H208.409V20.2302H215.877V14.0212H208.409V7.81213H200.94V14.0212H193.472V20.2302H200.94V26.4393Z"/>
</mask>
<path d="M200.94 26.4393H199.71L200.94 27.6693V26.4393ZM208.409 26.4393V27.6693L209.639 26.4393H208.409ZM208.409 20.2302V19.0002L207.179 20.2302H208.409ZM215.877 20.2302V21.4602L217.107 20.2302H215.877ZM215.877 14.0212H217.107L215.877 12.7912V14.0212ZM208.409 14.0212H207.179L208.409 15.2512V14.0212ZM208.409 7.81213H209.639L208.409 6.58213V7.81213ZM200.94 7.81213V6.58213L199.71 7.81213H200.94ZM200.94 14.0212V15.2512L202.17 14.0212H200.94ZM193.472 14.0212V12.7912L192.242 14.0212H193.472ZM193.472 20.2302H192.242L193.472 21.4602V20.2302ZM200.94 20.2302H202.17L200.94 19.0002V20.2302ZM200.94 27.6693H208.409V25.2093H200.94V27.6693ZM209.639 26.4393V20.2302H207.179V26.4393H209.639ZM208.409 21.4602H215.877V19.0002H208.409V21.4602ZM217.107 20.2302V14.0212H214.647V20.2302H217.107ZM215.877 12.7912H208.409V15.2512H215.877V12.7912ZM209.639 14.0212V7.81213H207.179V14.0212H209.639ZM208.409 6.58213H200.94V9.04213H208.409V6.58213ZM199.71 7.81213V14.0212H202.17V7.81213H199.71ZM200.94 12.7912H193.472V15.2512H200.94V12.7912ZM192.242 14.0212V20.2302H194.702V14.0212H192.242ZM193.472 21.4602H200.94V19.0002H193.472V21.4602ZM199.71 20.2302V26.4393H202.17V20.2302H199.71Z" fill="#00A9EB" mask="url(#path-10-inside-2)"/>
<mask id="path-12-inside-3" fill="white">
<path d="M224.549 38.3568H217.081V32.1477H209.612V38.3568H202.144V44.5658H209.612V50.7748H217.081V44.5658H224.549V38.3568Z"/>
</mask>
<path d="M224.549 38.3568H225.779L224.549 37.1268V38.3568ZM217.081 38.3568H215.851L217.081 39.5868V38.3568ZM217.081 32.1477H218.311L217.081 30.9177V32.1477ZM209.612 32.1477V30.9177L208.382 32.1477H209.612ZM209.612 38.3568V39.5868L210.842 38.3568H209.612ZM202.144 38.3568V37.1268L200.914 38.3568H202.144ZM202.144 44.5658H200.914L202.144 45.7958V44.5658ZM209.612 44.5658H210.842L209.612 43.3358V44.5658ZM209.612 50.7748H208.382L209.612 52.0048V50.7748ZM217.081 50.7748V52.0048L218.311 50.7748H217.081ZM217.081 44.5658V43.3358L215.851 44.5658H217.081ZM224.549 44.5658V45.7958L225.779 44.5658H224.549ZM224.549 37.1268H217.081V39.5868H224.549V37.1268ZM218.311 38.3568V32.1477H215.851V38.3568H218.311ZM217.081 30.9177H209.612V33.3777H217.081V30.9177ZM208.382 32.1477V38.3568H210.842V32.1477H208.382ZM209.612 37.1268H202.144V39.5868H209.612V37.1268ZM200.914 38.3568V44.5658H203.374V38.3568H200.914ZM202.144 45.7958H209.612V43.3358H202.144V45.7958ZM208.382 44.5658V50.7748H210.842V44.5658H208.382ZM209.612 52.0048H217.081V49.5448H209.612V52.0048ZM218.311 50.7748V44.5658H215.851V50.7748H218.311ZM217.081 45.7958H224.549V43.3358H217.081V45.7958ZM225.779 44.5658V38.3568H223.319V44.5658H225.779Z" fill="#00A9EB" mask="url(#path-12-inside-3)"/>
<mask id="path-14-inside-4" fill="white">
<path d="M172.27 144.012V150.221H164.801V156.431H172.27V162.64H179.738V156.431H187.207V150.221H179.738V144.012H172.27Z"/>
</mask>
<path d="M172.27 144.012V142.782L171.04 144.012H172.27ZM172.27 150.221V151.451L173.5 150.221H172.27ZM164.801 150.221V148.991L163.571 150.221H164.801ZM164.801 156.431H163.571L164.801 157.661V156.431ZM172.27 156.431H173.5L172.27 155.201V156.431ZM172.27 162.64H171.04L172.27 163.87V162.64ZM179.738 162.64V163.87L180.968 162.64H179.738ZM179.738 156.431V155.201L178.508 156.431H179.738ZM187.207 156.431V157.661L188.437 156.431H187.207ZM187.207 150.221H188.437L187.207 148.991V150.221ZM179.738 150.221H178.508L179.738 151.451V150.221ZM179.738 144.012H180.968L179.738 142.782V144.012ZM171.04 144.012V150.221H173.5V144.012H171.04ZM172.27 148.991H164.801V151.451H172.27V148.991ZM163.571 150.221V156.431H166.031V150.221H163.571ZM164.801 157.661H172.27V155.201H164.801V157.661ZM171.04 156.431V162.64H173.5V156.431H171.04ZM172.27 163.87H179.738V161.41H172.27V163.87ZM180.968 162.64V156.431H178.508V162.64H180.968ZM179.738 157.661H187.207V155.201H179.738V157.661ZM188.437 156.431V150.221H185.977V156.431H188.437ZM187.207 148.991H179.738V151.451H187.207V148.991ZM180.968 150.221V144.012H178.508V150.221H180.968ZM179.738 142.782H172.27V145.242H179.738V142.782Z" fill="#00A9EB" mask="url(#path-14-inside-4)"/>
<mask id="path-16-inside-5" fill="white">
<path d="M202.144 125.385H194.676V131.594H187.208V137.803H194.676V144.013H202.144V137.803H209.613V131.594H202.144V125.385Z"/>
</mask>
<path d="M202.144 125.385H203.374L202.144 124.155V125.385ZM194.676 125.385V124.155L193.446 125.385H194.676ZM194.676 131.594V132.824L195.906 131.594H194.676ZM187.208 131.594V130.364L185.978 131.594H187.208ZM187.208 137.803H185.978L187.208 139.033V137.803ZM194.676 137.803H195.906L194.676 136.573V137.803ZM194.676 144.013H193.446L194.676 145.243V144.013ZM202.144 144.013V145.243L203.374 144.013H202.144ZM202.144 137.803V136.573L200.914 137.803H202.144ZM209.613 137.803V139.033L210.843 137.803H209.613ZM209.613 131.594H210.843L209.613 130.364V131.594ZM202.144 131.594H200.914L202.144 132.824V131.594ZM202.144 124.155H194.676V126.615H202.144V124.155ZM193.446 125.385V131.594H195.906V125.385H193.446ZM194.676 130.364H187.208V132.824H194.676V130.364ZM185.978 131.594V137.803H188.438V131.594H185.978ZM187.208 139.033H194.676V136.573H187.208V139.033ZM193.446 137.803V144.013H195.906V137.803H193.446ZM194.676 145.243H202.144V142.783H194.676V145.243ZM203.374 144.013V137.803H200.914V144.013H203.374ZM202.144 139.033H209.613V136.573H202.144V139.033ZM210.843 137.803V131.594H208.383V137.803H210.843ZM209.613 130.364H202.144V132.824H209.613V130.364ZM203.374 131.594V125.385H200.914V131.594H203.374Z" fill="#00A9EB" mask="url(#path-16-inside-5)"/>
<mask id="path-18-inside-6" fill="white">
<path d="M16.6364 26.4393H24.1049V20.2302H31.5733V14.0212H24.1049V7.81213H16.6364V14.0212H9.16797V20.2302H16.6364V26.4393Z"/>
</mask>
<path d="M16.6364 26.4393H15.4064L16.6364 27.6693V26.4393ZM24.1049 26.4393V27.6693L25.3349 26.4393H24.1049ZM24.1049 20.2302V19.0002L22.8749 20.2302H24.1049ZM31.5733 20.2302V21.4602L32.8033 20.2302H31.5733ZM31.5733 14.0212H32.8033L31.5733 12.7912V14.0212ZM24.1049 14.0212H22.8749L24.1049 15.2512V14.0212ZM24.1049 7.81213H25.3349L24.1049 6.58213V7.81213ZM16.6364 7.81213V6.58213L15.4064 7.81213H16.6364ZM16.6364 14.0212V15.2512L17.8664 14.0212H16.6364ZM9.16797 14.0212V12.7912L7.93797 14.0212H9.16797ZM9.16797 20.2302H7.93797L9.16797 21.4602V20.2302ZM16.6364 20.2302H17.8664L16.6364 19.0002V20.2302ZM16.6364 27.6693H24.1049V25.2093H16.6364V27.6693ZM25.3349 26.4393V20.2302H22.8749V26.4393H25.3349ZM24.1049 21.4602H31.5733V19.0002H24.1049V21.4602ZM32.8033 20.2302V14.0212H30.3433V20.2302H32.8033ZM31.5733 12.7912H24.1049V15.2512H31.5733V12.7912ZM25.3349 14.0212V7.81213H22.8749V14.0212H25.3349ZM24.1049 6.58213H16.6364V9.04213H24.1049V6.58213ZM15.4064 7.81213V14.0212H17.8664V7.81213H15.4064ZM16.6364 12.7912H9.16797V15.2512H16.6364V12.7912ZM7.93797 14.0212V20.2302H10.398V14.0212H7.93797ZM9.16797 21.4602H16.6364V19.0002H9.16797V21.4602ZM15.4064 20.2302V26.4393H17.8664V20.2302H15.4064Z" fill="#00A9EB" mask="url(#path-18-inside-6)"/>
<mask id="path-20-inside-7" fill="white">
<path d="M7.96454 50.7748H15.433V44.5658H22.9014V38.3568H15.433V32.1477H7.96454V38.3568H0.496094V44.5658H7.96454V50.7748Z"/>
</mask>
<path d="M7.96454 50.7748H6.73454L7.96454 52.0048V50.7748ZM15.433 50.7748V52.0048L16.663 50.7748H15.433ZM15.433 44.5658V43.3358L14.203 44.5658H15.433ZM22.9014 44.5658V45.7958L24.1314 44.5658H22.9014ZM22.9014 38.3568H24.1314L22.9014 37.1268V38.3568ZM15.433 38.3568H14.203L15.433 39.5868V38.3568ZM15.433 32.1477H16.663L15.433 30.9177V32.1477ZM7.96454 32.1477V30.9177L6.73454 32.1477H7.96454ZM7.96454 38.3568V39.5868L9.19454 38.3568H7.96454ZM0.496094 38.3568V37.1268L-0.733906 38.3568H0.496094ZM0.496094 44.5658H-0.733906L0.496094 45.7958V44.5658ZM7.96454 44.5658H9.19454L7.96454 43.3358V44.5658ZM7.96454 52.0048H15.433V49.5448H7.96454V52.0048ZM16.663 50.7748V44.5658H14.203V50.7748H16.663ZM15.433 45.7958H22.9014V43.3358H15.433V45.7958ZM24.1314 44.5658V38.3568H21.6714V44.5658H24.1314ZM22.9014 37.1268H15.433V39.5868H22.9014V37.1268ZM16.663 38.3568V32.1477H14.203V38.3568H16.663ZM15.433 30.9177H7.96454V33.3777H15.433V30.9177ZM6.73454 32.1477V38.3568H9.19454V32.1477H6.73454ZM7.96454 37.1268H0.496094V39.5868H7.96454V37.1268ZM-0.733906 38.3568V44.5658H1.72609V38.3568H-0.733906ZM0.496094 45.7958H7.96454V43.3358H0.496094V45.7958ZM6.73454 44.5658V50.7748H9.19454V44.5658H6.73454Z" fill="#00A9EB" mask="url(#path-20-inside-7)"/>
<mask id="path-22-inside-8" fill="white">
<path d="M45.3068 144.012V150.221H37.8384V156.431H45.3068V162.64H52.7753V156.431H60.2437V150.221H52.7753V144.012H45.3068Z"/>
</mask>
<path d="M45.3068 144.012V142.782L44.0768 144.012H45.3068ZM45.3068 150.221V151.451L46.5368 150.221H45.3068ZM37.8384 150.221V148.991L36.6084 150.221H37.8384ZM37.8384 156.431H36.6084L37.8384 157.661V156.431ZM45.3068 156.431H46.5368L45.3068 155.201V156.431ZM45.3068 162.64H44.0768L45.3068 163.87V162.64ZM52.7753 162.64V163.87L54.0053 162.64H52.7753ZM52.7753 156.431V155.201L51.5453 156.431H52.7753ZM60.2437 156.431V157.661L61.4737 156.431H60.2437ZM60.2437 150.221H61.4737L60.2437 148.991V150.221ZM52.7753 150.221H51.5453L52.7753 151.451V150.221ZM52.7753 144.012H54.0053L52.7753 142.782V144.012ZM44.0768 144.012V150.221H46.5368V144.012H44.0768ZM45.3068 148.991H37.8384V151.451H45.3068V148.991ZM36.6084 150.221V156.431H39.0684V150.221H36.6084ZM37.8384 157.661H45.3068V155.201H37.8384V157.661ZM44.0768 156.431V162.64H46.5368V156.431H44.0768ZM45.3068 163.87H52.7753V161.41H45.3068V163.87ZM54.0053 162.64V156.431H51.5453V162.64H54.0053ZM52.7753 157.661H60.2437V155.201H52.7753V157.661ZM61.4737 156.431V150.221H59.0137V156.431H61.4737ZM60.2437 148.991H52.7753V151.451H60.2437V148.991ZM54.0053 150.221V144.012H51.5453V150.221H54.0053ZM52.7753 142.782H45.3068V145.242H52.7753V142.782Z" fill="#00A9EB" mask="url(#path-22-inside-8)"/>
<mask id="path-24-inside-9" fill="white">
<path d="M30.3705 144.013V137.803H37.8389V131.594H30.3705V125.385H22.902V131.594H15.4336V137.803H22.902V144.013H30.3705Z"/>
</mask>
<path d="M30.3705 144.013V145.243L31.6005 144.013H30.3705ZM30.3705 137.803V136.573L29.1405 137.803H30.3705ZM37.8389 137.803V139.033L39.0689 137.803H37.8389ZM37.8389 131.594H39.0689L37.8389 130.364V131.594ZM30.3705 131.594H29.1405L30.3705 132.824V131.594ZM30.3705 125.385H31.6005L30.3705 124.155V125.385ZM22.902 125.385V124.155L21.672 125.385H22.902ZM22.902 131.594V132.824L24.132 131.594H22.902ZM15.4336 131.594V130.364L14.2036 131.594H15.4336ZM15.4336 137.803H14.2036L15.4336 139.033V137.803ZM22.902 137.803H24.132L22.902 136.573V137.803ZM22.902 144.013H21.672L22.902 145.243V144.013ZM31.6005 144.013V137.803H29.1405V144.013H31.6005ZM30.3705 139.033H37.8389V136.573H30.3705V139.033ZM39.0689 137.803V131.594H36.6089V137.803H39.0689ZM37.8389 130.364H30.3705V132.824H37.8389V130.364ZM31.6005 131.594V125.385H29.1405V131.594H31.6005ZM30.3705 124.155H22.902V126.615H30.3705V124.155ZM21.672 125.385V131.594H24.132V125.385H21.672ZM22.902 130.364H15.4336V132.824H22.902V130.364ZM14.2036 131.594V137.803H16.6636V131.594H14.2036ZM15.4336 139.033H22.902V136.573H15.4336V139.033ZM21.672 137.803V144.013H24.132V137.803H21.672ZM22.902 145.243H30.3705V142.783H22.902V145.243Z" fill="#00A9EB" mask="url(#path-24-inside-9)"/>
</svg>
