<svg width="229" height="229" viewBox="0 0 229 229" fill="none" xmlns="http://www.w3.org/2000/svg">
<g filter="url(#filter0_d)">
<circle cx="114.55" cy="114.285" r="110" fill="white"/>
<mask id="mask0" mask-type="alpha" maskUnits="userSpaceOnUse" x="4" y="4" width="221" height="221">
<circle cx="114.55" cy="114.285" r="110" fill="white"/>
</mask>
<g mask="url(#mask0)">
<mask id="path-3-inside-1" fill="white">
<path d="M114.906 271.711C188.08 271.711 247.617 193.908 247.617 98.2831V-0.818735C247.617 -2.63771 247.014 -4.40571 245.901 -5.84824C244.788 -7.29078 243.228 -8.32714 241.463 -8.79644L117.046 -41.8304C115.644 -42.2032 114.168 -42.2032 112.766 -41.8304L-11.6507 -8.79644C-13.4157 -8.32714 -14.9758 -7.29078 -16.0886 -5.84824C-17.2015 -4.40571 -17.8049 -2.63771 -17.8052 -0.818735V98.2831C-17.8052 193.908 41.7324 271.711 114.906 271.711ZM-1.21626 5.53204L114.906 -25.3052L231.029 5.53204V98.2831C231.029 184.807 178.939 255.194 114.906 255.194C50.8729 255.194 -1.21626 184.807 -1.21626 98.2831V5.53204Z"/>
</mask>
<path d="M247.617 -0.818735L248.847 -0.818735L248.847 -0.818914L247.617 -0.818735ZM241.463 -8.79644L241.779 -9.98514L241.779 -9.98525L241.463 -8.79644ZM117.046 -41.8304L116.73 -40.6417L116.73 -40.6416L117.046 -41.8304ZM112.766 -41.8304L113.082 -40.6416L113.082 -40.6417L112.766 -41.8304ZM-11.6507 -8.79644L-11.9663 -9.98525L-11.9667 -9.98514L-11.6507 -8.79644ZM-17.8052 -0.818735L-19.0352 -0.818914V-0.818735H-17.8052ZM-1.21626 5.53204L-1.53195 4.34324L-2.44626 5.53204H-1.21626ZM114.906 -25.3052L115.222 -26.494L114.59 -26.494L114.906 -25.3052ZM231.029 5.53204H232.259L231.344 4.34324L231.029 5.53204ZM114.906 272.941C151.958 272.941 185.469 253.241 209.679 221.604C233.888 189.968 248.847 146.343 248.847 98.2831H246.387C246.387 145.848 231.579 188.937 207.725 220.109C183.872 251.28 151.028 270.481 114.906 270.481V272.941ZM248.847 98.2831V-0.818735H246.387V98.2831H248.847ZM248.847 -0.818914C248.847 -2.91015 248.153 -4.94219 246.875 -6.59955L244.927 -5.09693C245.874 -3.86923 246.387 -2.36526 246.387 -0.818556L248.847 -0.818914ZM246.875 -6.59955C245.596 -8.25682 243.805 -9.44653 241.779 -9.98514L241.147 -7.60774C242.651 -7.20776 243.98 -6.32474 244.927 -5.09693L246.875 -6.59955ZM241.779 -9.98525L117.362 -43.0192L116.73 -40.6416L241.147 -7.60763L241.779 -9.98525ZM117.362 -43.0191C115.753 -43.4469 114.059 -43.4469 112.45 -43.0191L113.082 -40.6417C114.277 -40.9594 115.535 -40.9594 116.73 -40.6417L117.362 -43.0191ZM112.451 -43.0192L-11.9663 -9.98525L-11.335 -7.60763L113.082 -40.6416L112.451 -43.0192ZM-11.9667 -9.98514C-13.9925 -9.44653 -15.784 -8.25682 -17.0625 -6.59955L-15.1148 -5.09693C-14.1676 -6.32474 -12.839 -7.20776 -11.3346 -7.60774L-11.9667 -9.98514ZM-17.0625 -6.59955C-18.3411 -4.94219 -19.0349 -2.91016 -19.0352 -0.818914L-16.5752 -0.818556C-16.575 -2.36525 -16.0619 -3.86922 -15.1148 -5.09693L-17.0625 -6.59955ZM-19.0352 -0.818735V98.2831H-16.5752V-0.818735H-19.0352ZM-19.0352 98.2831C-19.0352 146.343 -4.07526 189.968 20.1335 221.604C44.3428 253.241 77.8547 272.941 114.906 272.941V270.481C78.7839 270.481 45.9401 251.28 22.0872 220.109C-1.76628 188.937 -16.5752 145.848 -16.5752 98.2831H-19.0352ZM-0.900566 6.72084L115.222 -24.1164L114.59 -26.494L-1.53195 4.34324L-0.900566 6.72084ZM114.59 -24.1164L230.713 6.72084L231.344 4.34324L115.222 -26.494L114.59 -24.1164ZM229.799 5.53204V98.2831H232.259V5.53204H229.799ZM229.799 98.2831C229.799 141.308 216.846 180.273 195.991 208.454C175.136 236.635 146.44 253.964 114.906 253.964V256.424C147.405 256.424 176.771 238.56 197.969 209.917C219.166 181.273 232.259 141.783 232.259 98.2831H229.799ZM114.906 253.964C83.3718 253.964 54.6767 236.635 33.8212 208.454C12.9662 180.273 0.0137395 141.308 0.0137395 98.2831H-2.44626C-2.44626 141.783 10.6458 181.273 31.8438 209.917C53.0412 238.56 82.4073 256.424 114.906 256.424V253.964ZM0.0137395 98.2831V5.53204H-2.44626V98.2831H0.0137395Z" fill="#00A9EB" mask="url(#path-3-inside-1)"/>
<path d="M95.5366 77.9503C97.1165 79.0009 98.8808 79.7461 100.737 80.1472C98.0582 79.3626 96.4822 78.8918 95.5366 77.9503Z" fill="#007BFF"/>
<path d="M177.332 189.989C178.751 184.183 176.072 179.946 168.664 175.082C169.452 174.14 170.24 173.199 171.028 172.1C172.95 169.906 174.739 167.601 176.387 165.196C181.43 157.821 184.74 149.033 187.104 137.422C189.124 127.802 189.178 117.876 187.261 108.235C185.528 100.075 182.218 93.9557 177.017 89.4051C171.501 84.5407 164.724 82.187 157.632 79.8332L157.16 79.6763L157.317 80.147C157.585 80.7831 158.018 81.3365 158.572 81.7503C159.126 82.164 159.781 82.4231 160.469 82.5008C160.784 82.5008 161.1 82.6577 161.415 82.6577C168.507 85.0115 177.175 88.7775 181.903 97.7217C184.582 102.743 186.473 107.137 184.74 112.629C178.593 131.302 172.289 145.738 164.724 158.135C158.263 168.805 151.328 176.18 142.976 180.888C129.895 188.42 116.499 189.989 103.103 185.752C96.6462 183.753 90.9735 179.805 86.8699 174.454C82.7352 168.83 79.5419 162.577 77.4139 155.938C76.4742 153.613 75.3682 151.358 74.1043 149.19C73.4273 148.349 73.0901 147.285 73.1587 146.209C73.3163 145.424 73.9467 144.797 75.2075 144.169L79.7779 147.307L79.1475 146.366C78.6747 145.424 78.0443 144.64 77.5715 143.855C77.0621 143.201 76.5886 142.52 76.1531 141.815C75.8379 141.188 75.8379 139.618 76.1531 139.462C77.0443 139.052 78.0586 138.996 78.9899 139.305C79.5672 139.589 80.057 140.023 80.4083 140.56C80.8811 141.031 81.1963 141.658 81.6691 142.129L83.0875 144.012C83.678 144.629 84.3098 145.206 84.9787 145.738C85.2939 146.052 85.6091 146.209 85.7667 146.523L85.9243 146.68L86.7123 145.738L86.3971 145.267C86.2395 145.111 86.0819 144.797 85.9243 144.64C85.4515 144.012 84.9787 143.228 84.5059 142.6C83.2451 140.717 81.8267 138.677 80.5659 136.637C80.4453 136.219 80.411 135.781 80.4652 135.35C80.5194 134.918 80.6609 134.502 80.8811 134.126C81.3458 133.894 81.8585 133.774 82.3783 133.774C82.8981 133.774 83.4108 133.894 83.8755 134.126C85.038 134.843 85.9682 135.878 86.5547 137.108C87.4771 138.986 88.267 140.926 88.9187 142.914C89.0763 143.541 89.3915 144.169 89.5491 144.64C90.3126 146.806 91.6791 148.71 93.4891 150.132L94.1195 150.603L93.9619 149.818L92.5435 145.581C92.2283 144.483 91.7555 143.385 91.4403 142.286C91.291 141.75 91.2702 141.187 91.3797 140.642C91.4892 140.097 91.7259 139.585 92.0707 139.148C92.1534 138.965 92.2859 138.81 92.4531 138.699C92.6203 138.588 92.8155 138.526 93.0163 138.52C93.6369 138.559 94.2413 138.734 94.7861 139.032C95.331 139.331 95.803 139.745 96.1683 140.246C97.3467 143.003 98.142 145.906 98.5323 148.877V148.877C99.0051 154.996 99.4779 160.802 103.26 165.981C105.085 168.741 107.691 170.901 110.749 172.186C113.807 173.471 117.179 173.823 120.439 173.199C126.27 171.943 130.525 168.02 133.204 161.43C135.097 156.836 136.471 152.047 137.302 147.151C138.238 141.18 138.712 135.147 138.72 129.105V124.868C138.302 119.56 138.673 114.22 139.824 109.02C141.557 102.586 144.709 98.3494 149.437 95.9956C154.348 93.7784 159.65 92.5518 165.04 92.3865C166.616 92.2296 168.192 92.2296 169.61 92.2296C170.297 92.2555 170.984 92.2029 171.659 92.0727H171.974V90.8174H171.659C171.437 90.8409 171.213 90.7853 171.028 90.6605C170.556 90.6605 170.083 90.5035 169.61 90.5035C168.034 90.6605 166.458 90.8174 164.882 91.1312C160.907 91.5165 156.959 92.1454 153.062 93.0142C150.061 93.639 147.265 94.9995 144.925 96.9723C142.586 98.9452 140.779 101.468 139.666 104.312C136.672 111.217 136.514 118.435 136.829 125.025C136.987 128.007 136.987 131.145 137.144 134.44C137.144 135.852 137.302 137.265 137.302 138.677C135.715 137.986 133.947 137.821 132.259 138.206C130.525 138.363 128.949 138.52 127.688 137.422L128.886 128.305C129.393 128.673 129.994 128.891 130.62 128.932C131.25 128.932 131.723 128.462 132.196 127.834C132.45 127.569 132.648 127.256 132.778 126.913C132.908 126.571 132.967 126.205 132.953 125.839C132.938 125.473 132.849 125.114 132.692 124.783C132.535 124.451 132.313 124.155 132.038 123.911C131.6 123.529 131.044 123.308 130.462 123.283C129.832 123.44 129.517 124.068 129.201 124.696C129.044 125.01 128.886 125.48 128.571 125.48L123.843 113.084L133.141 105.552L131.881 105.866C128.31 106.99 125.173 109.181 122.897 112.142C122.74 111.829 122.582 111.672 122.425 111.358C121.937 110.599 121.411 109.866 120.849 109.161C119.928 108.174 118.866 107.328 117.697 106.65C116.568 105.929 115.255 105.548 113.914 105.552C112.691 105.913 111.524 106.441 110.447 107.121C109.974 107.435 109.659 107.592 109.186 107.906C109.041 107.979 108.92 108.092 108.837 108.23C108.753 108.369 108.71 108.528 108.713 108.69C108.713 109.632 108.241 109.632 107.295 109.946H106.98C106.421 110.107 105.926 110.436 105.561 110.887H105.246L105.404 111.044L105.089 111.358L104.773 111.515L105.089 111.672C105.246 111.829 105.404 111.985 105.561 111.985C105.894 112.337 106.264 112.653 106.665 112.927L107.61 113.398H107.768C107.595 114.034 107.561 114.699 107.67 115.349C107.779 115.999 108.027 116.618 108.398 117.164C108.812 117.775 109.378 118.27 110.041 118.6C110.704 118.93 111.441 119.084 112.181 119.047C112.653 119.047 113.126 119.047 113.284 119.361C113.441 119.674 113.284 119.831 112.969 120.459C112.395 121.514 112.227 122.741 112.496 123.911C112.969 125.637 113.757 127.206 114.387 128.932C114.716 129.53 114.98 130.162 115.175 130.815L114.545 131.443C114.185 131.814 113.732 132.083 113.234 132.221C112.735 132.359 112.208 132.361 111.708 132.228C111.26 132.108 110.844 131.891 110.49 131.593C110.135 131.294 109.852 130.922 109.659 130.502C109.415 129.843 109.415 129.12 109.659 128.462C111.708 127.206 110.92 125.794 110.447 124.696L109.974 123.754C109.845 123.369 109.64 123.014 109.37 122.709C109.101 122.405 108.772 122.157 108.405 121.982C108.037 121.806 107.638 121.706 107.231 121.687C106.823 121.668 106.417 121.73 106.034 121.871C105.608 121.887 105.182 121.834 104.773 121.714H104.458C102.409 121.4 101.464 119.988 100.36 117.948C99.6452 116.718 98.7413 115.606 97.6813 114.653C96.9829 113.934 96.2463 113.253 95.4749 112.613C95.1597 112.456 95.0021 112.142 94.6869 111.985C95.3173 111.021 95.7162 109.925 95.8529 108.782C95.9895 107.639 95.8602 106.48 95.4749 105.395L95.1597 104.297L93.7413 111.358L88.6981 109.318C88.8557 109.004 89.1709 108.533 89.3285 108.219C89.9649 107.261 90.5437 106.265 91.0621 105.238C91.2767 104.526 91.3306 103.776 91.2197 103.041V101.786H87.9101C87.9101 101.472 88.0677 101.315 88.0677 101.001C88.2713 100.288 88.3249 99.5397 88.2253 98.8044L88.5405 98.3337L88.0677 98.4906V98.3337C87.7525 97.8629 87.5949 97.5491 87.1221 97.5491C86.6493 97.5491 86.1765 97.8629 85.7037 98.1768C85.5858 98.3143 85.4413 98.4269 85.2789 98.5077C85.1164 98.5886 84.9393 98.6361 84.7581 98.6475V97.8629C84.7698 97.1548 84.6074 96.4545 84.2853 95.823C83.9701 95.1954 83.3397 94.8815 82.8669 94.4108C82.6297 94.2934 82.4161 94.1338 82.2365 93.94L82.0789 93.7831L81.9213 93.94C81.7637 94.0969 81.6061 94.4108 81.4485 94.5677C80.9757 95.0384 80.6605 95.6661 80.1877 96.1369C80.0301 96.2938 80.0301 96.6076 79.8725 96.9214C79.8454 97.0857 79.7921 97.2446 79.7149 97.3922C78.7883 98.3928 78.199 99.6568 78.0295 101.007C77.8599 102.358 78.1186 103.727 78.7693 104.924C79.0845 106.023 79.5573 106.964 79.8725 108.063C80.0496 108.404 80.1567 108.778 80.1877 109.161C71.6773 111.672 66.9493 116.85 66.0037 125.166C65.9604 125.695 65.7381 126.193 65.3733 126.579C64.1775 127.556 62.9136 128.447 61.5909 129.246C61.2757 129.56 60.8029 129.717 60.4877 130.031C59.7984 125.496 59.9051 120.877 60.8029 116.379C62.5084 108.693 66.815 101.823 73.0011 96.9214C85.4515 87.1926 99.3203 85.4665 114.292 91.9001C119.748 94.3955 125.632 95.8334 131.628 96.1369C132.786 96.1629 133.945 96.1105 135.096 95.9799C135.568 95.9799 136.199 95.823 136.672 95.823H136.987V94.5677L126.743 94.2539L126.9 89.0756C126.862 88.2715 127.013 87.4696 127.341 86.7339C127.67 85.9983 128.166 85.3493 128.792 84.8388C135.166 78.9577 140.031 71.6392 142.976 63.4982C143.256 62.896 143.467 62.2644 143.606 61.6152C143.764 61.3013 143.764 60.9875 143.921 60.6737V60.3598L142.818 59.8891L142.66 60.046C142.66 60.2029 142.503 60.3598 142.503 60.5167L142.03 61.4583C138.924 70.5361 133.491 78.6494 126.27 84.9958C125.463 85.7781 124.496 86.379 123.436 86.758C122.376 87.1369 121.246 87.2851 120.124 87.1926C119.287 87.0086 118.507 86.6276 117.849 86.0816C117.191 85.5355 116.674 84.8403 116.341 84.0543L115.868 83.1128C115.852 82.9938 115.796 82.8836 115.711 82.7989L115.553 82.642L112.716 83.1128L112.874 82.9558C114.621 81.4381 115.697 79.2955 115.868 76.993V76.2084L115.396 76.8361C114.938 77.3497 114.566 77.9323 114.292 78.5622C113.82 79.1898 113.504 79.8175 113.032 80.4452C112.559 81.0728 111.14 82.0143 110.51 81.8574C109.88 81.7005 109.564 80.9159 109.092 80.1313C108.926 79.9583 108.816 79.7396 108.776 79.5037C108.619 79.3468 108.619 79.0329 108.461 78.5622C108.304 78.0914 108.304 77.9345 108.304 77.6207L108.146 77.1499L107.831 77.4638L107.043 78.2483C106.798 78.6822 106.408 79.0158 105.94 79.1898C105.641 79.3493 105.373 79.5621 105.152 79.8175C104.521 80.2883 103.576 81.0728 103.26 80.9159C102.299 80.2414 101.625 79.2343 101.369 78.0914C100.896 76.5223 100.581 74.9531 100.266 73.3839C99.991 71.8462 99.6226 70.3266 99.1627 68.8333C98.9096 67.6855 98.2731 66.6571 97.3571 65.9161C96.4411 65.1751 95.2997 64.7652 94.1195 64.7535C93.3077 64.7663 92.5112 64.533 91.8357 64.0846C91.1601 63.6362 90.6375 62.9939 90.3371 62.2428C88.9288 59.7557 87.2365 57.4388 85.2939 55.3385C84.1404 54.1868 83.3029 52.7598 82.8615 51.1938C82.42 49.6279 82.3893 47.9754 82.7723 46.3942C82.9543 45.675 83.06 44.9387 83.0875 44.1974C83.0875 43.8836 83.2451 43.4128 83.2451 43.099H85.4515C87.3427 43.099 89.3915 43.099 91.4403 42.9421C97.4924 42.5551 103.569 42.8181 109.564 43.7266C113.032 44.1974 117.917 44.6682 122.172 41.216C122.64 40.7324 123.062 40.2071 123.433 39.6468C123.591 39.333 123.748 39.1761 123.906 38.8622L124.064 38.7053C124.223 39.3442 124.535 39.9351 124.975 40.4271C125.414 40.9191 125.967 41.2975 126.585 41.5298C126.743 41.5298 126.743 42.0006 126.9 42.3144C127.058 42.6282 127.058 42.7852 127.216 43.099L127.373 43.4128L129.422 42.4713L129.264 42.1575C129.107 42.0006 129.107 41.8436 128.949 41.6867C128.792 41.5298 128.476 40.9021 128.161 40.5883L127.216 40.1176C127.024 40.0817 126.841 40.0077 126.678 39.8998C126.516 39.792 126.377 39.6525 126.27 39.4899C125.905 38.6465 125.85 37.7025 126.112 36.8223C126.147 36.651 126.223 36.4905 126.332 36.354C126.442 36.2176 126.583 36.1091 126.743 36.0377C127.272 35.94 127.819 35.9944 128.319 36.1946C128.878 36.5413 129.457 36.8556 130.052 37.1361C131.366 37.7747 132.63 38.509 133.835 39.333C135.212 40.1978 136.388 41.3448 137.285 42.6977C138.181 44.0506 138.778 45.5782 139.036 47.1788C139.071 48.1296 138.794 49.0661 138.248 49.8464C137.701 50.0804 137.094 50.1354 136.514 50.0033C136.356 50.0033 136.199 49.2187 136.199 48.5911C136.213 48.1322 136.38 47.691 136.672 47.3357C136.829 47.1788 136.829 46.865 136.987 46.7081L137.144 46.3942L135.726 46.0804V46.3942C135.674 46.7735 135.568 47.1435 135.411 47.4927C135.078 48.2852 134.969 49.1535 135.096 50.0033C135.096 50.4741 135.884 51.1017 136.356 51.4156C136.677 51.6442 137.066 51.7551 137.46 51.7294C138.702 51.3148 139.761 50.4826 140.454 49.3757C140.853 48.3131 140.853 47.1429 140.454 46.0804C139.428 42.5566 137.126 39.5372 133.992 37.6069C132.522 36.6775 130.996 35.839 129.422 35.0962L127.531 34.1547L128.792 32.2717C129.082 32.8023 129.52 33.2382 130.052 33.5271C130.444 33.6613 130.861 33.7028 131.272 33.6483C131.682 33.5938 132.074 33.4449 132.416 33.2132C132.416 33.3701 132.574 33.5271 132.574 33.8409C132.732 34.4686 133.047 34.9393 133.204 35.567C133.494 36.2027 133.931 36.7614 134.479 37.1977C135.026 37.6339 135.67 37.9354 136.356 38.0776C137.059 38.1287 137.763 37.9964 138.399 37.6937C139.035 37.391 139.58 36.9284 139.981 36.3516L140.927 35.4101C140.769 35.7239 140.612 35.8808 140.454 36.1946C139.963 36.8586 139.589 37.6017 139.351 38.3915C139.193 39.333 139.981 40.1176 140.612 41.0591C140.769 41.216 140.927 41.5298 141.084 41.6867L139.351 42.0006V42.7852L140.612 43.099C140.475 43.8281 140.568 44.5815 140.878 45.2558C141.189 45.93 141.701 46.4922 142.345 46.865C144.001 48.1352 145.283 49.8245 146.059 51.7565C146.836 53.6886 147.077 55.7926 146.758 57.8492C146.461 60.1386 146.408 62.453 146.6 64.7535C147.231 71.6578 153.22 78.876 161.1 79.6606C161.886 79.739 162.678 79.739 163.464 79.6606C164.567 79.6606 165.67 79.5037 166.773 79.5037L168.664 79.3468L168.507 79.0329C167.876 77.6207 167.561 77.6207 165.512 77.9345C162.486 78.4804 159.364 78.0613 156.591 76.7371C153.817 75.4128 151.535 73.251 150.068 70.5594C148.237 66.9795 147.628 62.9029 148.334 58.9476C149.28 53.4555 147.231 48.748 142.503 44.982L143.764 43.2559C143.753 43.3411 143.762 43.4275 143.789 43.5089C143.817 43.5903 143.862 43.6647 143.921 43.7266C144.059 44.4268 144.27 45.1105 144.552 45.7666C145.497 48.1203 146.916 49.3757 148.964 49.3757C149.945 49.4229 150.917 49.1798 151.758 48.677C152.6 48.1743 153.273 47.4345 153.692 46.5512C154.165 45.7666 154.48 44.982 154.953 44.1974C155.111 44.0405 155.111 43.7267 155.268 43.5697C155.584 42.9421 155.899 42.1575 156.372 42.0006C156.643 41.9901 156.913 42.0439 157.16 42.1575C157.79 42.4713 158.578 43.7267 158.42 44.1974C157.73 46.3696 156.833 48.4714 155.741 50.4741C154.071 53.0167 153.044 55.9239 152.747 58.9476C152.695 59.4823 152.753 60.0218 152.915 60.5341C153.077 61.0463 153.342 61.5207 153.692 61.929C154.07 62.272 154.524 62.5218 155.017 62.658C155.51 62.7943 156.028 62.8134 156.529 62.7136C157.539 62.6457 158.542 62.4882 159.524 62.2428C159.839 62.2428 159.996 62.0859 160.312 62.0859L158.736 65.695L164.409 63.6551L165.197 61.3013L161.888 61.1444L165.197 58.3199L164.409 57.3784L161.888 59.1045L162.203 56.7507L158.736 58.163V58.3199C158.42 58.9476 158.42 59.4183 158.736 59.7322C159.051 60.2029 159.524 60.2029 160.154 60.2029H160.469C160.35 60.2195 160.239 60.2746 160.154 60.3598L157.79 61.3013C157.472 61.4601 157.121 61.5428 156.766 61.5428C156.41 61.5428 156.059 61.4601 155.741 61.3013C155.464 61.0671 155.238 60.7796 155.075 60.456C154.913 60.1324 154.818 59.7795 154.796 59.4183C154.691 56.9772 155.352 54.5642 156.687 52.514C156.844 52.0432 157.16 51.7294 157.317 51.2587C158.473 49.2447 159.474 47.1465 160.312 44.982C160.574 44.1018 160.518 43.1578 160.154 42.3144C159.953 41.9164 159.664 41.5687 159.309 41.297C158.955 41.0253 158.543 40.8368 158.105 40.7452C157.702 40.6262 157.278 40.5888 156.86 40.6353C156.442 40.6819 156.037 40.8113 155.67 41.0161C155.302 41.2208 154.98 41.4967 154.722 41.8275C154.463 42.1583 154.274 42.5373 154.165 42.9421C153.647 44.2307 152.958 45.4445 152.116 46.5512C151.773 46.9754 151.342 47.3211 150.852 47.5648C150.363 47.8085 149.827 47.9444 149.28 47.9634V47.9634C148.675 47.8734 148.106 47.6214 147.634 47.2345C147.162 46.8475 146.805 46.3401 146.6 45.7666C145.518 43.523 145.187 40.9932 145.655 38.5484C145.852 37.7775 145.771 36.9621 145.425 36.2449C145.079 35.5277 144.491 34.9544 143.764 34.6255L143.921 32.8994L143.133 32.2717L142.976 32.4286C142.66 32.7425 142.188 33.0563 141.872 33.3701C141.084 34.1547 140.139 34.7824 139.351 35.567L139.036 35.8808C138.248 36.6654 137.775 37.1361 136.829 36.6654C136.305 36.4667 135.834 36.1513 135.452 35.7434C135.069 35.3354 134.786 34.8456 134.623 34.3116L135.884 35.4101L138.248 32.7425L136.987 31.3302L138.405 28.1919L133.047 30.5456L132.574 31.0164C132.259 31.3302 131.471 31.9579 131.156 31.801C130.525 31.6441 130.052 30.8595 129.58 30.2318C129.365 29.8809 129.099 29.5637 128.792 29.2903L128.476 28.9765L128.319 29.4472C128.144 29.7335 128.036 30.0553 128.004 30.3887C126.9 33.2132 125.797 35.7239 122.33 36.0377C119.336 36.1946 117.917 34.3116 116.499 32.4286C116.118 31.8756 115.696 31.3511 115.238 30.8595L116.972 27.0935L116.184 26.6227L114.923 27.4073L113.662 25.0536L112.874 28.3488L110.195 28.1919L109.88 29.6041L114.135 30.5456C114.135 31.0164 114.292 31.6441 114.292 32.2717C114.608 33.9978 114.765 35.8808 114.923 37.7638C114.923 38.3915 114.608 39.4899 114.135 39.6468C113.977 39.8037 113.347 39.4899 112.874 39.333C112.716 39.333 112.716 39.1761 112.559 39.1761L114.45 34.3116L113.504 33.9978L113.347 34.3116C112.244 36.8223 111.613 38.3915 110.983 38.3915C110.352 38.3915 109.722 37.45 108.619 36.0377L111.928 33.0563L111.613 32.8994C111.298 32.7425 110.983 32.4286 110.668 32.2717C110.037 31.801 109.564 31.4871 109.092 31.1733C108.619 30.8595 107.988 30.7026 107.516 30.3887C107.358 30.2318 107.043 30.2318 106.885 30.0749L106.728 29.918L105.94 30.8595L107.358 32.8994H104.679L104.521 33.9978L105.782 34.7824L106.097 36.3516L104.206 39.4899H104.679C105.467 39.4899 105.624 39.0192 105.94 38.7053C106.57 37.7638 106.885 37.2931 107.2 37.2931C107.516 37.2931 108.146 37.7638 108.934 38.5484C110.058 39.5324 111.335 40.3274 112.716 40.9021C113.071 41.0874 113.44 41.2448 113.82 41.3729H114.45C114.765 41.216 115.396 40.9021 115.553 40.4314C115.914 39.367 116.127 38.2582 116.184 37.1361C116.184 36.3516 116.026 35.567 116.026 34.7824C116.955 36.0913 118.309 37.0406 119.86 37.4695C121.411 37.8985 123.063 37.7807 124.536 37.1361V38.2346L124.064 38.5484C123.398 38.9117 122.765 39.3317 122.172 39.8037C121.02 40.7553 119.677 41.4508 118.232 41.8437C115.913 42.4063 113.514 42.5656 111.14 42.3144L102.788 41.8437L93.4891 41.3729C90.6523 41.3729 87.9731 41.3729 85.1363 41.5298C83.8755 41.5298 82.7723 41.6867 81.5115 41.6867L83.4027 40.4314V40.2745C83.2257 39.6465 83.2699 38.9771 83.5279 38.3776C83.7859 37.7781 84.2423 37.2847 84.8211 36.9792C85.1363 36.6654 85.1363 36.0377 84.9787 35.0962C84.9787 34.6255 84.8211 34.1547 84.8211 33.684V32.8994L83.7179 34.6255L81.9843 31.6441C83.6706 30.1303 85.8602 29.2918 88.1307 29.2903C87.9731 29.6041 87.6579 29.918 87.5003 30.2318C86.8699 31.3302 86.0819 32.2717 85.4515 33.3701C85.2759 33.6486 85.17 33.9649 85.1425 34.2925C85.1151 34.6202 85.167 34.9496 85.2939 35.2531C85.4593 35.5564 85.684 35.8237 85.9546 36.0393C86.2253 36.2548 86.5365 36.4144 86.8699 36.5085C87.2225 36.6372 87.5984 36.6907 87.9731 36.6654C87.09 36.8919 86.2731 37.3225 85.5885 37.9223C84.9039 38.5222 84.371 39.2743 84.0331 40.1176L83.8755 40.5883L84.3483 40.4314H84.5059C84.6635 40.4314 84.8211 40.2745 84.9787 40.2745C87.8155 37.45 90.1795 37.2931 93.8043 39.6468C95.2898 40.5142 96.9689 40.9995 98.6899 41.0591C99.4931 41.0658 100.288 40.9012 101.022 40.5764C101.756 40.2516 102.412 39.7742 102.945 39.1761C103.379 38.781 103.717 38.2937 103.936 37.7503C104.154 37.2069 104.246 36.6216 104.206 36.0377L104.048 35.4101L103.576 35.8808C103.26 36.1946 102.945 36.6654 102.63 36.9792C102.017 37.8245 101.272 38.5662 100.424 39.1761C98.2171 40.4314 96.3259 39.6468 93.8043 38.2346C92.4358 37.5183 90.9335 37.091 89.3915 36.9792C91.4928 36.9984 93.5608 36.4566 95.3803 35.4101C96.0026 35.1398 96.5379 34.7038 96.9272 34.1501C97.3165 33.5963 97.5447 32.9464 97.5867 32.2717C97.5332 31.5598 97.3038 30.8721 96.9188 30.2698C96.5339 29.6675 96.0054 29.1693 95.3803 28.8196C94.7446 28.4126 94.055 28.0958 93.3315 27.8781C93.1739 27.8781 93.1739 27.7211 93.0163 27.7211C112.716 19.8753 139.824 23.4844 156.372 36.0377L157.002 36.5085L156.844 35.7239C156.831 35.3438 156.723 34.973 156.53 34.6445C156.338 34.3159 156.067 34.0399 155.741 33.8409C146.783 27.714 136.442 23.8868 125.64 22.6998L120.124 22.2291H119.808C120.588 22.0722 121.392 22.0722 122.172 22.2291H122.488C129.422 22.8567 136.672 23.4844 143.448 25.8381C150.827 28.2685 157.711 31.9879 163.779 36.8223C164.675 37.637 165.304 38.7009 165.585 39.8762C165.866 41.0514 165.786 42.2836 165.355 43.4128C164.567 45.7666 162.518 46.7081 160.627 47.4927C160.026 47.7395 159.479 48.1023 159.02 48.5601C158.56 49.0179 158.196 49.5617 157.948 50.1602C157.955 50.8034 158.134 51.433 158.466 51.9845C158.799 52.536 159.272 52.9896 159.839 53.2986C161.324 54.2455 162.986 54.8859 164.724 55.1816C165.989 55.2988 167.202 55.735 168.25 56.4488C169.298 57.1627 170.145 58.1307 170.713 59.2614C171.242 60.375 171.49 61.6003 171.435 62.831C171.38 64.0616 171.024 65.2602 170.398 66.3227C168.664 69.9318 168.822 73.0701 171.028 75.8946C173.235 78.7191 176.544 79.8175 179.066 78.5622L179.696 78.2483L179.066 78.0914C178.751 77.9345 178.436 77.9345 178.278 77.7776C177.777 77.5494 177.247 77.391 176.702 77.3068C175.594 77.1769 174.539 76.7677 173.634 76.1181C172.73 75.4685 172.006 74.6 171.533 73.5946C171.06 72.5892 170.852 71.4802 170.929 70.3724C171.006 69.2647 171.366 68.1949 171.974 67.2642C172.738 66.1217 173.222 64.8164 173.386 63.4535C173.551 62.0906 173.391 60.7084 172.92 59.4183C172.349 58.0067 171.428 56.7624 170.243 55.8019C169.058 54.8413 167.647 54.196 166.143 53.9262C164.883 53.6732 163.664 53.2509 162.518 52.6709C161.77 52.2372 161.082 51.7099 160.469 51.1017L159.839 50.4741C159.996 50.3172 160.312 50.1602 160.469 49.8464C160.988 49.2433 161.634 48.7611 162.36 48.4342C163.721 47.9614 164.925 47.1262 165.842 46.0196C166.759 44.9129 167.354 43.5771 167.561 42.1575C167.783 40.6962 167.591 39.2023 167.006 37.8439C166.421 36.4855 165.467 35.3165 164.252 34.4686C154.273 26.842 142.395 22.068 129.895 20.6599C125.026 20.1378 120.117 20.0852 115.238 20.503C107.513 20.8992 99.9265 22.7077 92.8587 25.8381C91.5289 26.5409 90.0909 27.0182 88.6035 27.2504C86.1206 27.5032 83.7356 28.3483 81.6505 29.7141C79.5654 31.0799 77.8419 32.9261 76.6259 35.0962C75.9504 35.9782 75.4858 37.0019 75.2673 38.0896C75.0489 39.1772 75.0823 40.3001 75.3651 41.3729L75.5227 42.0006L75.8379 41.3729C76.171 40.6134 76.4347 39.8257 76.6259 39.0191L77.0987 37.6069C77.4139 36.9792 77.8867 36.1946 78.0443 36.1946H78.3595L78.2019 36.3516C78.036 36.5246 77.9262 36.7433 77.8867 36.9792C77.8942 37.1016 77.9464 37.2171 78.0335 37.3038C78.1206 37.3906 78.2366 37.4425 78.3595 37.45C78.7496 37.6792 79.0749 38.0031 79.3051 38.3915C79.4105 38.9859 79.2987 39.5982 78.9899 40.1176C78.8323 40.2745 78.9899 40.4314 79.1475 40.5883C79.1475 40.6299 79.1641 40.6698 79.1937 40.6993C79.2232 40.7287 79.2633 40.7452 79.3051 40.7452L79.4627 41.0591L80.2507 40.4314L80.4083 41.6867C77.5715 42.7851 75.9955 44.0405 75.5227 45.2958C75.3838 45.7112 75.34 46.1523 75.3946 46.5867C75.4491 47.0211 75.6006 47.4379 75.8379 47.8065C76.3283 48.8029 77.1698 49.5848 78.2019 50.0033C78.6186 50.145 79.0622 50.1904 79.4991 50.1361C79.936 50.0817 80.3547 49.929 80.7235 49.6895L81.0387 49.5326L80.5659 52.3571C79.8345 55.9735 80.5106 59.7316 82.4571 62.8705C83.1525 64.0085 84.0927 64.9787 85.2101 65.7114C86.3274 66.444 87.594 66.9207 88.9187 67.1073C89.3795 67.1218 89.8227 67.2873 90.1795 67.578C90.299 67.5946 90.4097 67.6497 90.4947 67.7349C89.9756 68.8724 89.9191 70.1659 90.3371 71.344C90.8099 72.2855 92.0707 72.7563 93.6467 73.227C93.4348 74.2961 93.6019 75.4052 94.1195 76.3653C94.3341 76.7162 94.5996 77.0335 94.9075 77.3068C96.381 78.3084 98.0429 79.0023 99.7931 79.3468C99.6355 79.6606 99.3203 79.8175 99.0051 80.1313C98.4937 80.6184 98.0196 81.143 97.5867 81.7005C97.3234 81.9756 97.1101 82.2942 96.9563 82.642C96.6378 83.1577 96.5253 83.7737 96.6411 84.3681C96.9563 85.1527 97.9019 85.6234 99.0051 86.0942C98.8135 86.2033 98.5954 86.2576 98.3747 86.2511C92.8441 86.0619 87.3372 87.0567 82.2258 89.1682C77.1144 91.2796 72.5176 94.4587 68.7459 98.4906C65.3641 101.907 62.7346 105.988 61.0251 110.473C59.3155 114.958 58.5636 119.748 58.8171 124.539C58.7917 124.912 58.8454 125.286 58.9747 125.637C59.2899 129.089 59.4475 132.385 56.1379 134.738L55.6651 135.209C49.2035 144.153 47.7851 153.568 51.2523 163.297C51.913 164.927 52.7035 166.501 53.6163 168.005C53.9315 168.632 54.4043 169.26 54.7195 169.888C45.2635 176.792 38.1715 188.718 40.0627 194.681L40.3779 195.779L40.5355 194.681C41.2024 189.844 42.8657 185.196 45.4211 181.029C47.939 177.03 51.3335 173.65 55.3499 171.143C55.9803 171.928 56.6107 172.555 57.2411 173.34C58.6595 175.066 60.0779 176.635 61.4963 178.047C65.1211 181.813 69.2187 185.579 74.7347 186.835C79.2742 187.841 83.4957 189.942 87.0275 192.955C95.2227 199.702 105.152 202.526 117.444 201.428C120.596 201.114 123.906 200.487 127.058 199.859C128.476 199.545 129.895 199.388 131.313 199.074C133.677 204.253 140.769 205.665 146.6 203.939C150.225 207.705 152.747 208.646 156.214 207.548H156.372C157.257 207.389 158.091 207.021 158.804 206.475C159.517 205.929 160.088 205.221 160.469 204.409L160.784 203.625L159.996 204.096C159.681 204.253 159.524 204.409 159.366 204.409C159.208 204.409 158.893 204.723 158.736 204.723C157.849 205.401 156.832 205.889 155.747 206.159C154.663 206.429 153.534 206.474 152.432 206.292C151.452 206.174 150.513 205.829 149.692 205.284C148.871 204.739 148.19 204.009 147.704 203.154C147.388 202.526 146.128 202.526 145.655 202.526C144.867 202.526 144.079 202.683 143.133 202.683C141.672 202.919 140.182 202.919 138.72 202.683C137.39 202.583 136.11 202.14 135.004 201.397C133.899 200.654 133.007 199.637 132.416 198.447C133.362 197.505 134.15 196.721 135.096 195.936C137.144 193.896 139.036 192.013 140.927 189.973C141.26 189.724 141.512 189.383 141.652 188.992C141.792 188.602 141.814 188.179 141.715 187.776C141.473 187.408 141.147 187.102 140.763 186.884C140.38 186.666 139.95 186.541 139.508 186.521C138.459 186.442 137.406 186.442 136.356 186.521C135.93 186.487 135.501 186.541 135.096 186.678L134.308 185.579C135.253 185.109 136.041 184.638 136.987 184.167C139.415 183.035 141.782 181.778 144.079 180.401C144.635 180.019 145.294 179.814 145.97 179.814C146.646 179.814 147.305 180.019 147.861 180.401C152.747 183.226 154.796 187.776 156.372 192.013C158.42 197.505 158.105 198.29 152.904 200.8C152.747 200.957 152.747 200.957 152.747 201.114V201.742H153.062C154.091 201.815 155.121 201.604 156.038 201.134C156.955 200.664 157.725 199.951 158.263 199.074C160.154 196.564 162.518 195.936 164.724 197.505C166.235 198.402 167.887 199.038 169.61 199.388C170.083 199.545 170.398 199.545 170.871 199.702C171.344 199.859 171.659 199.859 171.816 200.173C172.117 200.48 172.334 200.858 172.447 201.271V201.428H172.132C171.671 201.557 171.191 201.61 170.713 201.585C170.32 201.496 169.946 201.336 169.61 201.114C169.452 200.957 169.295 200.957 168.98 200.8L168.192 200.487L170.083 204.096L167.719 204.566V204.723C167.591 204.964 167.537 205.237 167.561 205.508C167.481 206.026 167.263 206.513 166.931 206.92C166.583 207.226 166.134 207.394 165.67 207.394C165.206 207.394 164.757 207.226 164.409 206.92C163.626 206.46 162.717 206.257 161.811 206.342C160.905 206.426 160.05 206.794 159.366 207.391L158.736 207.862H159.524C160.054 207.836 160.585 207.889 161.1 208.019C162.02 207.9 162.955 208.064 163.779 208.489C164.332 208.799 164.956 208.961 165.591 208.961C166.226 208.961 166.85 208.799 167.404 208.489L167.876 208.175C169.266 207.488 170.458 206.462 171.344 205.194C171.916 204.136 172.725 203.224 173.708 202.526C173.819 202.43 173.906 202.308 173.96 202.172C174.015 202.036 174.037 201.888 174.023 201.742C174.094 201.474 174.102 201.193 174.048 200.921C173.993 200.649 173.877 200.393 173.708 200.173C172.988 199.439 172.132 198.852 171.186 198.447C170.628 198.252 170.043 198.147 169.452 198.133C168.664 197.976 167.876 197.976 167.404 197.505C166.391 196.553 165.132 195.901 163.767 195.624C162.403 195.347 160.987 195.455 159.681 195.936L154.165 183.383L167.246 175.223C179.224 183.696 175.441 189.973 173.55 194.837C174.023 195.622 176.229 194.053 177.332 189.973V189.989ZM88.9187 31.0164C89.2696 30.4405 89.7524 29.9554 90.3276 29.6009C90.9028 29.2463 91.5541 29.0323 92.2283 28.9765C92.9168 29.013 93.5913 29.1843 94.2132 29.4804C94.8352 29.7766 95.3924 30.1919 95.8531 30.7026C96.1111 30.9428 96.3148 31.235 96.4506 31.5596C96.5865 31.8843 96.6514 32.234 96.6411 32.5856C96.4663 33.0515 96.1313 33.4407 95.6955 33.684C94.2096 34.3534 92.6832 34.9299 91.1251 35.4101C90.524 35.5491 89.9419 35.7599 89.3915 36.0377L89.2339 35.567H89.0763C87.8155 35.4101 87.1851 35.2531 87.0275 34.9393C86.8699 34.6255 87.0275 33.9978 87.8155 32.8994C87.9731 32.5856 88.2883 32.2717 88.6035 31.801C88.6035 31.4871 88.7611 31.3302 88.9187 31.0164V31.0164ZM79.1475 35.0962C79.8806 33.7851 80.9048 32.6581 82.1419 31.801V32.5856C81.9843 35.0962 80.7235 35.0962 79.1475 35.0962V35.0962ZM81.8267 46.3942C81.6691 47.4927 81.5115 48.748 81.3539 50.0033L81.0387 49.8464C77.5715 48.9049 77.0987 48.1203 77.2563 46.7081C77.4139 45.2958 79.6203 43.8836 82.4571 43.5697C82.1419 44.6682 81.9843 45.6097 81.8267 46.3942V46.3942ZM86.0819 65.0673C84.2873 63.7572 82.9859 61.8856 82.3859 59.752C81.7859 57.6184 81.9219 55.3461 82.7723 53.2986L84.6635 56.1231C86.2691 58.6685 88.005 61.1302 89.8643 63.4982C90.7596 64.4044 91.7656 65.1952 92.8587 65.8519C93.3315 66.1658 93.6467 66.3227 94.1195 66.6365H93.9619C91.2312 67.0721 88.4343 66.5151 86.0819 65.0673V65.0673ZM96.4835 77.3068C95.6955 76.3653 95.5379 74.9531 96.0107 72.7563V72.4424H95.6955C95.4734 72.4189 95.2501 72.4745 95.0651 72.5993C94.5923 72.5993 94.2771 72.7563 94.1195 72.5993C93.3145 72.3343 92.6032 71.844 92.0707 71.1871C91.9795 70.4911 92.0888 69.7837 92.3859 69.1472C93.3945 68.9897 94.4268 69.0979 95.3803 69.461C96.0107 69.7748 96.6411 70.0887 97.4291 70.5594C97.7443 70.7163 98.0595 71.0302 98.3747 71.1871L98.5323 71.344L98.8475 71.1871L100.108 78.7191C98.7761 78.6621 97.5008 78.1653 96.4835 77.3068ZM119.651 89.8602L125.955 88.291V89.0756C126.034 90.1726 126.034 91.2738 125.955 92.3708C125.797 92.9985 125.64 93.6262 125.167 93.7831C124.921 93.9001 124.651 93.9609 124.379 93.9609C124.106 93.9609 123.837 93.9001 123.591 93.7831C123.433 93.7831 123.276 93.6262 123.118 93.6262C122.96 93.6262 122.645 93.3123 122.33 93.3123C119.336 92.6847 119.178 92.6847 119.651 89.8602ZM98.5323 84.8388C98.5839 84.4595 98.69 84.0896 98.8475 83.7404C99.3327 83.1788 99.8595 82.6543 100.424 82.1713L100.896 81.7005C104.048 83.4266 105.467 83.2697 107.2 80.759C107.516 81.0728 107.831 81.2298 107.988 81.5436L110.352 83.8973C110.894 84.5959 111.67 85.0759 112.539 85.249C113.408 85.422 114.311 85.2763 115.08 84.8388C115.396 85.3096 115.553 85.6234 115.868 86.0942C116.656 87.3495 117.444 88.6048 118.075 89.8602C118.232 90.174 117.917 90.6448 117.76 91.1155C117.76 91.1571 117.743 91.197 117.713 91.2265C117.684 91.2559 117.644 91.2724 117.602 91.2724L101.369 86.7218L103.733 84.9958L103.26 84.2112H103.103C102.788 84.3681 102.472 84.3681 102.157 84.525C101.39 84.807 100.599 85.0172 99.7931 85.1527C99.3521 85.1633 98.9164 85.0549 98.5323 84.8388V84.8388ZM114.702 121.887C115.175 120.161 115.49 119.376 115.017 118.749C114.545 118.121 113.757 117.964 112.023 117.65C111.255 117.574 110.547 117.205 110.047 116.62C109.547 116.034 109.295 115.279 109.344 114.512L111.235 114.826L111.865 113.884L108.241 111.53L113.126 112.001L112.653 111.53C112.496 111.217 112.181 111.06 112.023 110.903C111.715 110.629 111.449 110.312 111.235 109.961V108.863H111.865C112.087 108.839 112.311 108.895 112.496 109.02C112.849 109.351 113.166 109.72 113.441 110.118L113.914 110.589L114.072 110.746L114.86 110.118L113.599 106.98H114.702C115.452 106.908 116.209 107.015 116.909 107.294C119.351 108.304 121.359 110.137 122.582 112.472C125.275 116.689 127.146 121.374 128.098 126.281C128.098 126.594 128.256 127.065 128.256 127.222V127.379L126.049 127.85C123.528 128.32 121.164 128.948 118.957 129.419C118.583 129.444 118.207 129.391 117.854 129.262C116.505 128.64 115.435 127.541 114.853 126.178C114.271 124.816 114.217 123.287 114.702 121.887V121.887ZM116.121 132.557C119.43 130.047 123.37 129.733 127.941 129.576C127.153 138.991 121.952 144.797 112.181 147.151L111.865 147.307L112.811 148.72L120.533 146.052C119.149 149.402 119.037 153.139 120.218 156.566C120.532 157.134 121.033 157.577 121.637 157.821L122.267 158.135L121.952 157.507C120.818 155.159 120.422 152.525 120.815 149.95C121.209 147.374 122.374 144.976 124.158 143.071C126.522 140.246 133.457 138.049 137.239 139.618L137.081 140.246C135.821 148.72 134.402 157.507 129.359 165.039C126.049 170.06 121.321 172.571 115.648 171.943H115.49C112.998 171.656 110.615 170.761 108.554 169.337C106.492 167.914 104.815 166.007 103.67 163.784C101.322 159.562 100.126 154.801 100.203 149.975C100.244 147.649 99.9788 145.328 99.4149 143.071C102.409 143.541 104.931 142.129 107.453 140.717C105.561 146.366 105.876 151.073 108.556 155.31L109.817 157.35L109.186 155.153C106.349 145.738 108.713 138.206 116.121 132.557V132.557ZM80.9757 105.411C80.343 104.318 80.0676 103.057 80.1877 101.802C80.3177 101.343 80.3709 100.865 80.3453 100.389V100.06L80.6605 103.826L81.9213 103.983L82.0789 102.57C82.2365 101.629 82.2365 100.531 82.3941 99.589V98.4906C82.5517 97.5491 82.7093 96.7645 82.8669 95.823C83.0245 95.823 83.4973 95.823 83.6549 95.9799C83.8604 96.9598 83.9136 97.9654 83.8125 98.9614C83.773 99.1973 83.6632 99.416 83.4973 99.589C83.3397 99.7459 83.3397 99.9029 83.1821 100.06L83.0245 100.217L83.4973 101.158L87.9101 99.7459L87.5949 100.217C87.0467 100.898 86.5713 101.634 86.1765 102.414C86.0189 102.727 85.8613 102.884 85.7037 103.198C85.687 103.317 85.6317 103.427 85.5461 103.512L85.3885 103.826L85.7037 103.983C85.8613 103.983 86.0189 104.14 86.1765 104.14C86.3341 104.14 86.9645 104.61 87.2797 104.453C88.0966 104.152 88.8872 103.785 89.6437 103.355C89.9589 103.198 90.1165 103.041 90.4317 102.884C91.2197 103.669 90.9045 104.14 90.2741 104.924C90.0108 105.199 89.7974 105.518 89.6437 105.866C89.3285 106.65 88.8557 107.592 88.5405 108.376L88.2253 109.161H86.9645C85.8613 109.161 84.9157 109.318 83.8125 109.318C82.7093 109.318 82.0789 109.318 81.9213 107.749L80.9757 105.395V105.411ZM68.2101 124.539C70.1013 116.693 75.4597 111.829 83.3397 111.044C87.0482 110.661 90.7807 111.497 93.9677 113.423C97.1547 115.35 99.6212 118.262 100.991 121.714L99.5725 121.557V121.871C99.5725 122.342 99.4149 122.813 99.4149 123.283C99.2319 124.373 99.1265 125.474 99.0997 126.579C99.1424 127.23 99.3026 127.867 99.5725 128.462C99.7301 128.776 100.518 128.932 100.518 128.932C100.518 128.932 100.833 128.932 100.833 128.776L100.991 128.619C101.398 128.098 101.717 127.515 101.936 126.893C102.127 125.857 102.233 124.807 102.252 123.754V122.813C103.512 123.127 104.3 123.44 104.458 123.754C104.27 124.298 103.944 124.785 103.513 125.166L103.197 125.48L106.034 126.265L106.192 128.148L109.029 127.049L109.186 127.206C107.453 129.246 108.398 131.129 109.186 132.698C109.645 133.74 109.701 134.914 109.344 135.994C108.964 137.376 108.06 138.558 106.822 139.289C105.498 139.958 104.129 140.535 102.724 141.015C102.094 141.172 101.621 141.486 100.991 141.643L100.676 141.8C100.175 141.904 99.7286 142.182 99.4149 142.584C99.0054 141.326 98.3641 140.156 97.5237 139.132C96.4205 137.72 95.1597 136.308 92.9533 136.778C92.1745 137.008 91.4783 137.455 90.9474 138.067C90.4166 138.679 90.0735 139.43 89.9589 140.23C88.9366 137.384 87.2006 134.846 84.9157 132.855C84.2227 132.175 83.2885 131.794 82.3153 131.794C81.342 131.794 80.4079 132.175 79.7149 132.855C77.8237 134.268 78.2965 135.837 78.9269 137.249C78.9269 137.406 79.0845 137.563 79.0845 137.72C78.3606 137.535 77.6048 137.509 76.8699 137.644C76.1349 137.78 75.4385 138.073 74.8293 138.504C74.272 139.045 73.9352 139.771 73.8837 140.544C71.5899 138.623 69.8542 136.126 68.8565 133.311C67.8589 130.497 67.6357 127.468 68.2101 124.539V124.539ZM141.179 189.345C138.71 193.217 135.146 196.274 130.935 198.133C125.81 200.304 120.268 201.322 114.702 201.114C109.817 201.114 103.985 200.957 98.4693 198.604C95.1162 197.14 91.9433 195.297 89.0133 193.111C85.2911 190.14 81.0019 187.951 76.4053 186.678C71.432 185.364 66.979 182.573 63.6397 178.675L62.8517 177.89C59.3709 174.418 56.3519 170.516 53.8685 166.279C49.4557 157.962 49.9284 149.175 55.1293 139.76C57.5817 135.64 60.8531 132.063 64.7429 129.246C65.0922 129.093 65.4122 128.881 65.6885 128.619C65.8461 128.619 66.0037 128.462 66.1613 128.462C66.4765 133.954 68.9981 138.504 74.0413 142.584L73.4109 143.212C72.7488 143.837 72.2138 144.583 71.8349 145.409C71.6261 146.111 71.5604 146.847 71.6416 147.575C71.7228 148.302 71.9492 149.006 72.3077 149.645C73.8996 151.819 75.075 154.266 75.7749 156.864C76.0728 157.882 76.4414 158.878 76.8781 159.845C79.1424 166.055 82.4461 171.838 86.6493 176.949C91.8665 182.785 98.8269 186.8 106.507 188.404C112.359 189.658 118.389 189.871 124.316 189.032C120.679 192.095 116.147 193.911 111.393 194.21H111.077L111.55 195.622H112.338C112.868 195.648 113.399 195.595 113.914 195.465C117.19 195.021 120.289 193.721 122.897 191.699C125.923 189.52 129.441 188.119 133.141 187.619C133.378 187.659 133.598 187.768 133.772 187.933C133.772 188.247 133.772 188.718 133.457 188.875C132.196 189.973 130.935 191.072 129.832 192.17C129.201 192.798 128.571 193.268 127.941 193.896C127.64 194.203 127.423 194.581 127.31 194.994L127.153 195.622L127.783 195.308C129.09 194.561 130.307 193.666 131.408 192.641C134.402 190.444 137.081 188.247 141.179 189.345V189.345ZM164.346 176.164C161.657 178.038 158.868 179.766 155.993 181.343C155.205 181.813 154.575 182.127 153.787 182.598C153.517 182.654 153.238 182.655 152.967 182.601C152.696 182.547 152.439 182.44 152.211 182.284C151.149 181.642 150.147 180.907 149.217 180.087C148.901 179.773 148.586 179.617 148.271 179.303C148.901 178.832 149.374 178.204 150.005 177.734C151.423 176.321 152.999 175.066 154.417 173.654C159.461 169.103 163.558 163.297 168.129 155.294C171.627 148.874 174.783 142.274 177.585 135.523C179.791 130.345 181.525 125.01 183.416 119.831C184.204 117.478 185.149 114.967 185.937 112.613C186.095 112.456 186.095 112.142 186.253 111.985L186.41 111.829H186.725V117.634C186.857 122.083 186.751 126.535 186.41 130.972C184.992 143.526 181.682 154.039 176.009 162.983C173.098 168.147 169.124 172.639 164.346 176.164" fill="#007BFF"/>
<path d="M115.236 53.9421L115.551 53.6282L115.236 53.4713C114.606 53.1575 113.66 52.8436 113.345 53.3144C110.981 56.1389 107.671 57.3942 104.519 58.6496C103.816 58.7865 103.129 58.9969 102.47 59.2772C101.843 59.453 101.258 59.7525 100.75 60.1581C100.242 60.5637 99.8207 61.0671 99.5118 61.6381C99.203 62.2091 99.0128 62.8362 98.9525 63.482C98.8922 64.1278 98.963 64.779 99.1608 65.397L99.476 66.4954L99.7912 65.397C100.579 62.1017 102.943 60.8464 105.465 60.0618C107.174 59.5213 108.813 58.784 110.35 57.865C111.611 57.0804 112.714 56.1389 113.975 55.1974C114.312 54.7031 114.74 54.2771 115.236 53.9421" fill="#007BFF"/>
<path d="M104.678 63.2C104.836 62.5724 103.418 61.6309 103.102 63.357C103.001 64.3529 103.055 65.3585 103.26 66.3384C103.347 66.8373 103.549 67.3095 103.849 67.7179C104.15 68.1262 104.542 68.4597 104.994 68.6921C105.386 68.8216 105.802 68.8606 106.212 68.8062C106.622 68.7518 107.013 68.6055 107.358 68.3783C110.51 66.4953 112.243 63.0431 112.874 58.8064V58.1787C112.874 58.1787 111.77 57.2372 111.14 60.0617C110.194 63.0431 109.406 65.083 107.358 66.6522C106.885 66.966 105.624 67.7506 104.994 66.966C104.503 65.7728 104.392 64.4578 104.678 63.2" fill="#007BFF"/>
<path d="M151.801 49.5481C151.328 49.2342 150.383 50.0188 150.225 50.3326C149.948 50.8264 149.736 51.3539 149.595 51.9018C149.437 52.2156 149.437 52.3726 149.28 52.6864L149.122 53.1571L151.171 52.8433L153.377 56.4524L153.535 55.6678C153.535 55.0401 153.692 54.5694 153.692 54.0986C153.898 53.1718 153.951 52.2179 153.85 51.2741C153.692 50.6465 152.747 50.0188 151.801 49.5481" fill="#007BFF"/>
<path d="M111.549 108.863H111.076C111.391 108.706 111.549 108.863 111.549 108.863Z" fill="#007BFF"/>
<path d="M110.825 108.706C110.849 108.977 110.794 109.249 110.667 109.49C110.794 109.249 110.849 108.977 110.825 108.706Z" fill="#007BFF"/>
</g>
</g>
<defs>
<filter id="filter0_d" x="0.549805" y="0.2854" width="228" height="228" filterUnits="userSpaceOnUse" color-interpolation-filters="sRGB">
<feFlood flood-opacity="0" result="BackgroundImageFix"/>
<feColorMatrix in="SourceAlpha" type="matrix" values="0 0 0 0 0 0 0 0 0 0 0 0 0 0 0 0 0 0 127 0"/>
<feOffset/>
<feGaussianBlur stdDeviation="2"/>
<feColorMatrix type="matrix" values="0 0 0 0 1 0 0 0 0 1 0 0 0 0 1 0 0 0 0.65 0"/>
<feBlend mode="normal" in2="BackgroundImageFix" result="effect1_dropShadow"/>
<feBlend mode="normal" in="SourceGraphic" in2="effect1_dropShadow" result="shape"/>
</filter>
</defs>
</svg>
